<svg width="18" height="17" viewBox="0 0 18 17" fill="none" xmlns="http://www.w3.org/2000/svg">
<path d="M9.89922 14.7172L9.8992 14.7172L9.89517 14.7208L8.92323 15.5915L7.96256 14.7616C6.79169 13.6833 5.92697 12.8879 5.36857 12.3756C4.82048 11.8727 4.1509 11.2089 3.35846 10.3816C2.56908 9.5574 2.03007 8.90635 1.72131 8.42147C1.40596 7.92624 1.11954 7.35311 0.86393 6.69929C0.618927 6.07259 0.5 5.462 0.5 4.86475C0.5 3.63759 0.923437 2.61571 1.77743 1.76869C2.63159 0.921499 3.66383 0.5 4.90479 0.5C6.37741 0.5 7.58035 1.05803 8.54853 2.19519L8.92924 2.64235L9.30994 2.19519C10.2781 1.05803 11.4811 0.5 12.9537 0.5C14.2256 0.5 15.2709 0.923576 16.123 1.76869C16.977 2.61571 17.4004 3.63759 17.4004 4.86475C17.4004 5.45827 17.276 6.06601 17.0188 6.69106C16.7486 7.34756 16.4542 7.92353 16.1372 8.42147C15.8284 8.90635 15.2894 9.5574 14.5 10.3816C13.7067 11.2098 13.0425 11.8752 12.5062 12.3799C11.9681 12.8862 11.1003 13.6644 9.89922 14.7172ZM8.57713 14.2424L8.92924 14.5916L9.28134 14.2424L9.35566 14.1687C10.7206 12.953 11.7212 12.0439 12.3544 11.4437C12.9945 10.837 13.6951 10.1138 14.4558 9.2755C15.2256 8.42718 15.7864 7.65727 16.11 6.96947C16.4322 6.28469 16.5978 5.58173 16.5978 4.86475C16.5978 3.85148 16.2488 2.98439 15.5444 2.30195C14.8434 1.62283 13.968 1.2879 12.9537 1.2879C12.1802 1.2879 11.4511 1.51334 10.775 1.94999C10.1974 2.32304 9.75134 2.79561 9.45027 3.36686H8.42009C8.13849 2.79437 7.70125 2.3219 7.1254 1.94999C6.44572 1.51102 5.70211 1.2879 4.90479 1.2879C3.89048 1.2879 3.01954 1.62301 2.33086 2.30606C1.64191 2.98939 1.30262 3.85521 1.30262 4.86475C1.30262 5.57775 1.45936 6.27777 1.76554 6.96106C2.077 7.65612 2.64216 8.43001 3.42668 9.27887C4.2006 10.1163 4.90718 10.8383 5.546 11.4437C6.17752 12.0423 7.16318 12.9505 8.501 14.1669L8.57713 14.2424Z" fill="#9B9B9B" stroke="white"/>
</svg>
