<?xml version="1.0" standalone="no"?>
<!DOCTYPE svg PUBLIC "-//W3C//DTD SVG 20010904//EN"
 "http://www.w3.org/TR/2001/REC-SVG-20010904/DTD/svg10.dtd">
<svg version="1.0" xmlns="http://www.w3.org/2000/svg"
 width="320.000000pt" height="320.000000pt" viewBox="0 0 320.000000 320.000000"
 preserveAspectRatio="xMidYMid meet">

<g transform="translate(0.000000,320.000000) scale(0.100000,-0.100000)"
fill="#000000" stroke="none">
<path d="M1476 3037 c-23 -17 -34 -100 -16 -122 19 -23 77 -19 91 6 15 29 -3
69 -32 69 -21 0 -21 -1 -6 -18 24 -26 22 -62 -2 -62 -38 0 -37 118 1 133 9 4
9 6 -3 6 -8 1 -23 -5 -33 -12z"/>
<path d="M1585 3040 c-4 -6 -4 -14 -1 -17 3 -4 6 -1 6 5 0 18 40 14 47 -3 3
-9 -2 -21 -12 -29 -15 -11 -15 -13 -1 -25 23 -19 20 -37 -10 -60 -23 -18 -24
-21 -7 -21 41 0 52 21 50 90 l-2 65 -32 3 c-17 2 -34 -2 -38 -8z"/>
<path d="M1700 3026 c0 -11 9 -16 33 -16 39 0 50 -7 36 -24 -14 -17 -59 -86
-59 -91 0 -3 4 -5 9 -5 11 0 84 130 77 138 -3 3 -26 7 -51 9 -36 4 -45 2 -45
-11z"/>
<path d="M1360 3017 c0 -2 7 -19 16 -36 11 -22 15 -47 11 -74 -5 -38 -4 -40 9
-23 20 29 18 99 -4 119 -17 16 -32 22 -32 14z"/>
<path d="M1274 2991 c23 -25 32 -91 17 -122 -11 -22 -10 -22 13 4 28 30 33 65
15 100 -14 25 -28 37 -48 37 -11 0 -10 -4 3 -19z"/>
<path d="M1222 2988 c-7 -7 -12 -19 -12 -28 0 -19 30 -50 48 -50 15 0 16 17 1
22 -7 2 -12 18 -13 36 -1 35 -6 38 -24 20z"/>
<path d="M1923 2975 c-27 -19 -46 -81 -33 -106 14 -25 48 -33 76 -18 26 13 32
47 12 67 -19 19 -29 14 -23 -10 7 -27 -17 -64 -33 -54 -27 16 -2 91 40 120 21
15 21 16 2 16 -11 0 -29 -7 -41 -15z"/>
<path d="M1096 2945 c-24 -24 -3 -85 30 -85 18 0 18 14 -1 30 -20 17 -20 60 0
60 23 0 54 -79 43 -109 -12 -34 -3 -37 17 -7 21 32 14 94 -12 113 -23 17 -58
16 -77 -2z"/>
<path d="M1803 2943 c9 -15 46 -23 53 -12 3 5 -1 9 -10 9 -8 0 -22 3 -32 7
-11 4 -15 3 -11 -4z"/>
<path d="M2041 2913 c-10 -22 -10 -28 3 -35 32 -18 15 -60 -29 -71 -12 -3 -6
-5 15 -6 42 -1 55 7 64 36 6 17 1 29 -21 49 l-28 27 38 -7 c40 -7 51 6 18 24
-31 16 -47 12 -60 -17z"/>
<path d="M973 2892 c-12 -8 -18 -31 -15 -64 2 -21 36 -32 59 -19 17 10 17 10
1 11 -30 0 -54 70 -25 70 25 0 49 -39 55 -86 4 -43 6 -45 18 -29 19 26 17 54
-6 93 -20 32 -58 43 -87 24z"/>
<path d="M890 2804 c0 -27 7 -43 31 -65 17 -16 40 -29 50 -29 15 0 11 8 -21
41 -24 25 -40 51 -40 65 0 13 -4 24 -10 24 -5 0 -10 -16 -10 -36z"/>
<path d="M2221 2811 c-23 -22 -31 -38 -31 -64 0 -20 4 -39 10 -42 5 -3 7 0 4
9 -8 20 21 73 51 92 14 9 22 20 19 25 -9 15 -20 10 -53 -20z"/>
<path d="M2135 2810 c27 -12 43 -12 25 0 -8 5 -22 9 -30 9 -10 0 -8 -3 5 -9z"/>
<path d="M2294 2812 c10 -16 -9 -56 -44 -90 -29 -29 -30 -32 -10 -32 33 0 70
44 70 84 0 19 -5 38 -12 42 -6 4 -8 3 -4 -4z"/>
<path d="M793 2760 c-32 -29 -42 -50 -25 -50 5 0 17 9 27 20 29 32 43 24 56
-35 7 -32 17 -54 23 -52 13 5 13 3 -16 85 -13 34 -25 62 -28 62 -3 0 -20 -14
-37 -30z"/>
<path d="M1351 2749 c-69 -12 -215 -56 -261 -80 -19 -10 -46 -23 -60 -28 -14
-6 -34 -17 -45 -23 -86 -55 -133 -85 -149 -98 -56 -45 -217 -212 -246 -255
-48 -72 -129 -230 -145 -280 l-13 -44 39 -15 c50 -20 129 -21 129 -2 0 7 6 19
14 25 18 15 121 -2 183 -30 50 -23 53 -23 53 -4 0 16 25 21 35 6 3 -5 36 -16
73 -25 75 -17 168 -52 193 -73 38 -32 52 -3 37 77 -5 29 -7 54 -4 57 8 8 26
-69 26 -113 0 -45 -14 -69 -47 -79 -19 -5 -23 -2 -23 17 0 13 -11 30 -23 40
-21 15 -40 21 -145 48 -18 5 -51 7 -73 5 -22 -3 -48 0 -57 5 -34 19 -155 60
-179 60 -15 0 -27 -8 -32 -22 -12 -32 3 -54 44 -69 19 -7 37 -19 40 -27 5 -14
-17 -63 -46 -101 -14 -17 -19 -40 -19 -83 0 -114 38 -129 123 -48 60 57 93 66
83 23 -4 -16 -9 -47 -13 -70 -6 -47 -23 -49 -23 -2 0 16 -3 29 -6 29 -3 0 -26
-13 -51 -30 -70 -47 -102 -37 -128 40 -15 46 -15 54 -1 104 9 30 16 56 16 58
0 9 -219 138 -234 138 -7 0 -24 -95 -37 -207 -9 -84 -8 -124 5 -230 14 -112
67 -317 86 -333 3 -3 14 -25 25 -50 27 -65 99 -175 158 -245 64 -75 156 -163
180 -170 9 -4 17 -10 17 -15 0 -11 170 -111 245 -144 238 -103 518 -122 785
-51 78 21 201 70 252 102 21 13 40 23 43 23 3 0 41 25 83 56 88 65 203 175
195 187 -6 9 -46 2 -116 -20 -41 -13 -54 -13 -93 -1 -26 7 -50 22 -56 33 -6
11 -19 29 -29 40 -14 16 -20 41 -23 108 -5 98 -22 138 -58 134 -17 -2 -23 5
-29 31 -6 30 -5 32 15 26 11 -3 34 -15 49 -26 16 -11 31 -17 34 -15 2 3 -7 13
-21 22 -14 10 -24 21 -21 25 3 5 -5 16 -17 24 l-22 16 27 0 c14 0 57 -12 94
-26 56 -22 88 -28 177 -30 104 -3 110 -4 138 -31 17 -15 41 -49 54 -75 27 -53
39 -59 50 -25 3 12 12 29 19 37 29 36 25 47 -28 75 -80 42 -154 58 -203 46
-35 -9 -55 -7 -125 15 -46 14 -97 31 -113 38 l-30 13 47 11 c26 7 47 14 47 15
0 2 -25 2 -55 -1 -30 -2 -55 -2 -55 2 0 3 15 13 33 22 67 34 284 186 342 239
33 30 68 55 80 55 12 0 40 -9 63 -20 22 -11 48 -20 56 -20 8 0 18 -4 21 -10 3
-5 16 -15 27 -21 21 -11 21 -11 15 122 -7 182 -61 382 -134 501 -13 21 -23 40
-23 42 0 10 -65 103 -109 156 -178 217 -463 383 -720 420 -81 12 -336 11 -410
-1z m-46 -470 c79 -41 110 -108 60 -131 -13 -6 -29 -24 -34 -40 -9 -25 -7 -33
13 -54 l23 -25 87 15 c81 14 189 61 198 85 2 5 51 32 110 60 98 47 112 51 175
50 l68 -2 -68 -8 c-38 -4 -76 -14 -85 -22 -10 -8 -44 -26 -77 -41 -81 -37
-157 -76 -175 -91 -18 -15 -85 -38 -160 -55 -30 -6 -70 -15 -87 -20 -19 -5
-33 -4 -33 1 0 5 7 9 15 9 20 0 19 12 -3 41 -11 13 -22 38 -25 55 -6 29 -3 32
23 38 53 10 32 74 -36 108 -59 30 -90 30 -123 -1 -53 -49 -50 -120 4 -107 22
6 65 -21 65 -40 0 -4 -5 -3 -11 3 -7 7 -24 9 -39 6 -21 -4 -35 2 -61 25 l-34
30 30 57 c17 31 39 61 50 65 35 15 89 11 130 -11z m-521 -54 c8 -8 17 -15 21
-15 3 0 34 -13 68 -29 113 -52 161 -69 237 -81 41 -7 82 -16 91 -21 10 -5 20
-4 27 3 7 7 14 9 17 6 3 -3 -1 -12 -9 -21 -13 -12 -25 -13 -93 -1 -85 14 -170
40 -193 59 -8 7 -26 16 -40 20 -14 4 -56 23 -95 41 -66 33 -73 34 -145 28 -52
-4 -72 -3 -65 4 23 24 156 29 179 7z m1261 -30 c-16 -8 -58 -14 -93 -15 -73 0
-117 -19 -177 -77 -86 -82 -122 -101 -282 -150 -45 -13 -53 -20 -53 -40 0 -21
-28 -61 -120 -171 -27 -32 -25 -58 5 -78 15 -10 29 -32 35 -58 28 -109 86
-236 147 -321 24 -32 43 -65 43 -72 0 -16 -24 -17 -51 -2 -42 22 -39 2 6 -44
41 -41 45 -49 34 -63 -11 -13 -26 -15 -76 -11 -79 6 -141 36 -201 98 -26 27
-50 49 -54 49 -4 0 -5 -69 -4 -152 2 -113 8 -165 20 -198 34 -90 54 -197 45
-242 -4 -24 -8 -46 -9 -50 0 -5 -4 -8 -9 -8 -8 0 -34 64 -45 111 -3 14 -17 38
-31 53 -28 30 -30 42 -15 81 11 29 1 54 -62 165 -30 51 -57 169 -58 248 0 38
17 24 41 -34 16 -38 31 -59 48 -66 29 -11 37 -1 45 56 13 83 40 85 95 8 47
-66 94 -94 164 -100 75 -6 91 7 55 45 -35 38 -81 113 -73 121 3 3 19 -2 34
-11 38 -22 50 -21 44 3 -3 11 -9 20 -14 20 -4 0 -27 39 -49 88 -23 48 -48 101
-56 117 -8 17 -17 46 -20 65 -9 50 -30 78 -63 87 l-30 8 21 45 c11 25 28 54
37 65 34 39 81 134 70 141 -14 8 29 54 50 54 40 0 173 55 236 98 73 49 150
104 175 124 8 7 53 15 100 19 130 9 129 9 95 -6z m270 -191 c125 -39 208 -117
233 -216 17 -66 15 -93 -8 -139 -41 -79 -150 -173 -330 -285 -114 -71 -117
-69 -30 22 47 49 106 111 130 138 25 27 62 67 83 88 20 21 34 38 30 38 -8 0
-62 -49 -203 -184 -104 -100 -189 -170 -196 -163 -3 3 6 26 21 52 15 25 25 49
21 52 -3 4 -6 2 -6 -3 0 -6 -16 -27 -35 -47 l-35 -37 0 32 c1 18 10 49 20 68
59 107 74 148 78 205 5 71 -22 149 -69 202 -16 19 -29 41 -29 49 0 39 52 99
115 133 48 26 116 24 210 -5z m-490 -100 c32 -8 66 -21 75 -29 9 -8 21 -15 27
-15 22 0 103 -102 114 -143 18 -68 7 -165 -27 -223 -15 -27 -32 -52 -37 -55
-4 -3 -14 -25 -21 -49 l-13 -44 -28 40 c-15 21 -24 30 -20 19 21 -59 20 -61
-13 -33 -55 46 -137 49 -218 7 l-39 -19 -27 32 c-83 99 -110 237 -67 339 26
62 98 153 143 180 33 20 41 20 151 -7z m-958 -486 c21 -24 28 -23 41 7 20 44
29 27 34 -62 5 -95 28 -162 60 -171 20 -5 24 -17 7 -27 -31 -20 -79 85 -79
171 0 47 -13 64 -29 37 -9 -17 -10 -17 -30 1 -12 11 -25 35 -31 55 -13 45 -12
64 1 31 6 -13 17 -33 26 -42z m979 -63 c31 -18 47 -36 59 -68 9 -24 36 -65 60
-91 30 -32 47 -60 52 -89 7 -36 13 -44 43 -53 l35 -12 3 -80 c3 -78 2 -82 -29
-116 -27 -32 -37 -36 -79 -36 -37 0 -55 6 -84 29 -75 59 -116 131 -116 201 0
37 -23 64 -72 85 -24 10 -58 32 -75 49 -28 25 -33 37 -33 76 0 56 27 86 98
112 65 23 89 22 138 -7z"/>
<path d="M1070 1131 c0 -17 4 -32 9 -35 4 -3 11 -20 15 -37 3 -17 26 -62 51
-99 46 -69 53 -101 34 -144 -10 -22 -8 -29 16 -58 15 -18 34 -46 42 -63 13
-28 14 -26 10 40 -2 39 -11 86 -20 105 -13 26 -67 251 -67 276 0 3 -80 44 -87
44 -2 0 -3 -13 -3 -29z"/>
<path d="M2205 1991 c74 -11 170 -46 212 -78 52 -38 83 -73 84 -92 0 -9 3 -11
5 -4 7 17 -21 67 -54 95 -60 51 -141 81 -221 84 -66 2 -69 2 -26 -5z"/>
<path d="M2377 1694 c-9 -10 4 -34 19 -34 8 0 14 9 14 20 0 19 -19 27 -33 14z"/>
<path d="M2321 1651 c-16 -10 -6 -31 15 -31 8 0 14 9 14 20 0 22 -7 25 -29 11z"/>
<path d="M2457 1634 c-14 -15 -6 -34 14 -34 14 0 19 5 17 17 -3 18 -20 27 -31
17z"/>
<path d="M2262 1593 c4 -21 33 -25 33 -3 0 8 -8 16 -18 18 -14 3 -18 -1 -15
-15z"/>
<path d="M2407 1583 c-14 -13 -6 -33 13 -33 22 0 23 1 14 24 -7 17 -16 20 -27
9z"/>
<path d="M2344 1529 c-3 -6 -2 -15 4 -21 13 -13 32 -2 32 18 0 16 -26 19 -36
3z"/>
<path d="M1693 1894 c-7 -3 -13 -10 -13 -15 0 -6 7 -6 18 0 11 6 40 3 87 -9
89 -23 103 -28 145 -59 l35 -26 -16 24 c-25 39 -113 80 -183 86 -33 2 -67 2
-73 -1z"/>
<path d="M1896 1235 c3 -16 13 -35 22 -42 24 -17 29 -23 57 -62 14 -20 25 -28
25 -19 0 8 -9 25 -20 38 -11 13 -20 27 -20 32 0 5 -11 13 -23 19 -13 6 -29 23
-35 37 l-12 27 6 -30z"/>
<path d="M1746 1134 c49 -33 54 -41 54 -83 0 -44 32 -110 68 -142 18 -16 21
-18 10 -4 -24 29 -49 91 -62 155 -10 45 -18 59 -45 77 -19 13 -41 23 -49 23
-8 0 3 -12 24 -26z"/>
<path d="M2323 2718 c-27 -30 -37 -63 -24 -85 9 -16 10 -16 11 4 0 25 66 96
83 90 23 -7 18 -36 -13 -71 -18 -20 -38 -36 -46 -36 -8 0 -14 -5 -14 -11 0
-21 64 0 87 29 27 33 29 63 5 85 -26 24 -65 21 -89 -5z"/>
<path d="M754 2648 c2 -7 -1 -22 -7 -33 -9 -18 -9 -19 6 -6 14 11 20 11 34 0
15 -13 15 -12 4 9 -7 14 -8 22 -1 22 5 0 10 5 10 10 0 7 -6 7 -19 0 -13 -7
-21 -7 -24 0 -3 6 -4 5 -3 -2z"/>
<path d="M2426 2602 c-3 -5 23 -36 57 -69 84 -82 118 -123 184 -222 112 -167
171 -321 214 -561 4 -25 8 -101 8 -170 1 -100 -5 -153 -28 -266 -16 -78 -34
-150 -40 -160 -5 -11 -17 -38 -25 -62 -9 -23 -35 -81 -58 -127 -38 -78 -44
-106 -19 -91 27 17 112 205 149 331 34 118 46 214 46 375 -1 154 -24 344 -44
364 -6 6 -10 19 -10 29 0 33 -71 198 -124 287 -66 113 -134 201 -218 283 -68
66 -82 75 -92 59z"/>
<path d="M584 2516 c-121 -128 -165 -191 -237 -338 -62 -127 -82 -184 -113
-318 -23 -97 -27 -140 -27 -275 -1 -140 2 -176 27 -290 29 -130 59 -211 76
-200 9 5 2 39 -30 140 -58 184 -53 526 10 723 51 157 96 249 182 377 48 70 61
85 151 177 37 38 67 73 67 78 0 26 -35 2 -106 -74z"/>
<path d="M2622 2570 c-28 -26 -31 -32 -20 -50 17 -26 45 -35 63 -20 19 16 19
34 0 50 -11 9 -13 16 -6 23 7 7 17 5 31 -8 11 -10 20 -14 20 -8 0 12 -33 43
-46 43 -5 0 -24 -14 -42 -30z m36 -43 c2 -10 -3 -17 -11 -17 -18 0 -39 24 -30
34 12 12 38 2 41 -17z"/>
<path d="M2693 2499 c-38 -24 -39 -30 -17 -64 20 -30 39 -33 24 -4 -7 11 -9
28 -5 36 5 14 7 14 19 -3 8 -10 18 -16 22 -12 4 4 1 14 -6 23 -18 22 -4 31 18
12 10 -10 22 -14 25 -11 6 7 -30 44 -42 44 -3 0 -21 -10 -38 -21z"/>
<path d="M2740 2415 c-20 -21 -22 -28 -12 -50 6 -14 16 -25 22 -25 7 0 8 6 0
19 -16 30 -12 38 20 50 25 8 32 7 37 -4 3 -8 12 -15 21 -15 12 0 10 6 -8 25
-30 32 -50 32 -80 0z"/>
<path d="M2800 2339 c-43 -26 -45 -28 -37 -35 3 -4 23 4 43 17 36 22 37 22 51
3 12 -17 12 -20 -4 -31 -48 -32 -53 -38 -47 -60 7 -25 27 -29 70 -13 21 8 29
8 35 -2 6 -9 -3 -19 -26 -30 -45 -24 -57 -43 -20 -34 33 8 74 37 74 51 0 6 -6
18 -13 28 -12 16 -19 17 -55 7 -59 -16 -70 -2 -22 27 46 27 49 38 22 71 -23
27 -27 27 -71 1z"/>
<path d="M2860 2133 c0 -5 9 -16 19 -25 13 -11 18 -24 14 -39 -6 -21 -3 -20
36 11 23 19 40 38 38 44 -4 13 -107 21 -107 9z m75 -23 c-3 -5 -13 -10 -21
-10 -8 0 -12 5 -9 10 3 6 13 10 21 10 8 0 12 -4 9 -10z"/>
<path d="M2978 2064 c-1 -9 -18 -22 -37 -29 -44 -14 -56 -39 -14 -29 15 4 34
11 41 17 9 7 17 5 28 -9 14 -18 14 -17 8 16 -7 41 -21 59 -26 34z"/>
<path d="M2953 1968 c-38 -13 -45 -31 -8 -22 22 5 25 3 25 -20 0 -16 -6 -26
-15 -26 -8 0 -15 -5 -15 -11 0 -11 44 -5 85 12 17 7 17 8 -7 8 -23 1 -28 6
-28 26 0 16 6 25 15 25 8 0 15 5 15 10 0 12 -24 11 -67 -2z"/>
<path d="M425 1910 c-4 -6 2 -13 12 -17 10 -4 20 -10 23 -13 3 -4 25 -18 49
-31 130 -71 161 -81 161 -54 0 10 -18 35 -41 56 -34 31 -51 39 -98 45 -31 4
-66 10 -78 15 -13 5 -25 4 -28 -1z"/>
<path d="M2956 1839 c15 -16 16 -24 6 -39 -19 -31 -15 -32 38 -5 28 14 50 31
50 39 0 12 -48 26 -94 26 -19 0 -19 0 0 -21z m58 -14 c-4 -8 -10 -15 -15 -15
-5 0 -9 7 -9 15 0 8 7 15 15 15 9 0 12 -6 9 -15z"/>
<path d="M2960 1749 c0 -5 9 -9 20 -9 13 0 20 -7 20 -20 0 -14 -7 -20 -22 -20
-12 0 -18 -3 -14 -7 9 -9 89 -4 100 7 5 5 6 20 2 34 -5 22 -11 25 -56 24 -28
0 -50 -4 -50 -9z m90 -19 c0 -11 -7 -20 -15 -20 -8 0 -15 9 -15 20 0 11 7 20
15 20 8 0 15 -9 15 -20z"/>
<path d="M2945 1620 c-3 -5 -1 -10 4 -10 6 0 11 -16 11 -35 0 -21 -5 -35 -12
-35 -8 0 -9 -3 -2 -10 5 -5 34 -6 66 -3 47 5 57 9 60 27 7 34 -1 46 -31 46
-15 0 -36 7 -47 15 -22 17 -40 19 -49 5z m103 -42 c20 -20 14 -28 -22 -28 -31
0 -53 19 -39 34 11 10 48 7 61 -6z"/>
<path d="M2509 1518 c-25 -24 -51 -51 -58 -60 -26 -34 1 -18 54 33 49 46 58
51 87 46 33 -7 33 -7 8 8 -37 21 -43 19 -91 -27z"/>
<path d="M2973 1493 c-16 -6 -17 -55 -1 -71 7 -7 27 -12 45 -12 41 0 62 34 44
69 -11 20 -55 28 -88 14z m58 -13 c38 -21 17 -57 -27 -46 -26 7 -31 25 -12 44
15 15 15 15 39 2z"/>
<path d="M2954 1365 c-3 -13 -4 -30 -1 -37 3 -7 6 -3 6 8 1 26 23 36 57 28 18
-5 24 -13 24 -33 1 -23 2 -24 11 -8 17 30 -14 67 -56 67 -28 0 -36 -4 -41 -25z"/>
<path d="M3024 1273 c-9 -14 -15 -15 -44 -5 -18 7 -36 10 -38 7 -9 -8 5 -17
40 -24 23 -5 32 -12 30 -24 -3 -19 17 -23 22 -4 19 60 14 87 -10 50z"/>
<path d="M2927 1223 c-4 -3 -2 -12 3 -18 13 -16 2 -45 -16 -45 -8 0 -14 -4
-14 -10 0 -5 10 -8 23 -6 12 3 37 5 55 5 26 1 33 5 30 18 -2 10 -13 22 -25 28
-11 6 -27 16 -35 23 -8 6 -18 9 -21 5z m53 -48 c10 -13 9 -15 -9 -15 -12 0
-21 6 -21 15 0 8 4 15 9 15 5 0 14 -7 21 -15z"/>
<path d="M2520 1192 c8 -4 26 -15 40 -24 14 -9 42 -24 63 -33 33 -13 37 -14
37 0 0 9 -9 15 -22 15 -13 0 -41 11 -63 25 -22 13 -47 24 -55 24 -13 0 -13 -1
0 -7z"/>
<path d="M2883 1100 c-9 -25 -9 -33 4 -46 9 -8 22 -13 29 -10 7 3 16 1 19 -4
9 -14 21 -12 39 6 27 26 19 49 -21 63 -21 8 -43 16 -48 18 -6 2 -16 -10 -22
-27z m45 -17 c-5 -25 -28 -28 -28 -4 0 12 6 21 16 21 9 0 14 -7 12 -17z m42
-7 c0 -15 -18 -31 -26 -23 -7 7 7 37 17 37 5 0 9 -6 9 -14z"/>
<path d="M305 1061 c-33 -21 -67 -50 -74 -65 -13 -23 -12 -31 9 -76 30 -64 81
-120 110 -120 24 0 110 48 148 83 36 33 28 73 -34 164 -14 21 -31 41 -37 45
-25 16 -64 6 -122 -31z m119 2 c32 -33 76 -108 76 -130 0 -23 -49 -67 -109
-98 -27 -13 -38 -15 -55 -6 -37 21 -100 128 -90 155 10 25 116 93 150 95 6 1
18 -7 28 -16z"/>
<path d="M328 999 c-26 -15 -25 -85 1 -99 52 -28 111 2 111 56 0 44 -67 70
-112 43z m80 -52 c-2 -25 -8 -33 -26 -35 -49 -7 -70 44 -30 72 32 23 60 4 56
-37z"/>
<path d="M456 925 c4 -9 11 -14 16 -13 15 5 11 23 -6 26 -11 2 -14 -2 -10 -13z"/>
<path d="M2860 1024 c0 -8 7 -14 16 -14 9 0 14 -7 12 -17 -2 -11 -12 -18 -25
-18 -27 0 -43 -15 -17 -17 10 0 24 -2 30 -2 6 -1 19 -7 28 -15 9 -8 19 -11 23
-7 4 3 -2 12 -12 20 -22 16 -11 40 16 33 34 -9 20 8 -26 30 -36 17 -45 19 -45
7z"/>
<path d="M2541 1013 c-1 -18 19 -67 25 -61 3 3 -2 21 -10 39 -8 19 -15 29 -15
22z"/>
<path d="M2820 935 c14 -17 6 -33 -24 -45 -20 -8 -20 -8 7 -19 29 -11 97 -15
97 -5 0 13 -66 84 -79 84 -11 0 -11 -3 -1 -15z m45 -45 c3 -5 -1 -10 -9 -10
-9 0 -16 5 -16 10 0 6 4 10 9 10 6 0 13 -4 16 -10z"/>
<path d="M2590 872 c0 -10 11 -25 25 -32 14 -7 25 -19 25 -27 0 -7 8 -13 17
-13 9 0 29 -12 44 -26 17 -16 34 -24 43 -21 17 7 22 37 7 37 -7 0 -33 18 -113
79 -32 26 -48 27 -48 3z"/>
<path d="M2188 858 c7 -7 12 -20 12 -30 0 -31 93 -52 129 -29 9 6 -5 9 -37 9
-58 0 -70 5 -82 38 -5 13 -15 24 -22 24 -9 0 -9 -3 0 -12z"/>
<path d="M525 838 c-20 -20 -89 -68 -112 -78 -8 -4 -6 -12 7 -30 14 -17 22
-21 27 -14 18 27 119 94 136 90 22 -5 22 -2 -7 28 -28 31 -26 30 -51 4z"/>
<path d="M600 776 c0 -9 5 -16 10 -16 6 0 10 4 10 9 0 6 -4 13 -10 16 -5 3
-10 -1 -10 -9z"/>
<path d="M2610 758 c0 -27 6 -40 25 -52 33 -22 72 -20 85 3 14 26 13 38 -2 23
-21 -21 -46 -13 -77 25 l-31 38 0 -37z"/>
<path d="M610 732 c-14 -15 -45 -44 -70 -65 -38 -33 -42 -39 -29 -52 12 -13
23 -6 89 56 58 55 71 72 59 80 -19 12 -20 11 -49 -19z"/>
<path d="M525 740 c3 -5 8 -10 11 -10 2 0 4 5 4 10 0 6 -5 10 -11 10 -5 0 -7
-4 -4 -10z"/>
<path d="M2556 705 c-23 -34 -21 -42 21 -81 33 -32 38 -33 52 -19 15 15 14 17
-2 26 -22 13 -57 50 -57 61 0 5 7 11 15 14 19 8 20 24 1 24 -7 0 -21 -11 -30
-25z"/>
<path d="M2446 681 c-4 -5 -2 -20 3 -33 9 -21 10 -21 10 10 1 32 -3 39 -13 23z"/>
<path d="M585 607 c-14 -26 -15 -38 -7 -53 10 -19 11 -19 17 1 4 11 24 35 44
52 l36 33 -36 0 c-30 0 -39 -5 -54 -33z"/>
<path d="M2376 620 c-18 -18 -17 -19 16 -49 19 -17 47 -48 63 -70 l28 -41 23
23 c17 16 19 23 9 25 -16 4 -49 51 -41 59 3 3 21 -4 40 -16 28 -18 39 -20 56
-11 23 12 27 30 6 30 -7 0 -19 6 -25 14 -7 8 -30 16 -51 18 -34 3 -40 1 -40
-16 0 -18 -2 -18 -25 4 -14 13 -25 29 -25 37 0 18 -11 15 -34 -7z"/>
<path d="M676 579 c-10 -17 -29 -35 -42 -41 -33 -15 -30 -28 5 -28 38 0 70 39
64 75 -3 14 -6 25 -7 25 -1 0 -10 -14 -20 -31z"/>
<path d="M720 522 c-7 -26 -14 -55 -17 -64 -4 -15 0 -16 19 -9 16 6 25 19 29
42 3 19 8 39 11 45 4 5 -1 15 -12 21 -16 11 -19 7 -30 -35z"/>
<path d="M778 493 c-11 -3 -17 -18 -20 -46 -6 -51 -4 -54 23 -36 14 10 23 27
25 52 2 20 0 36 -4 36 -4 -1 -14 -3 -24 -6z"/>
<path d="M838 458 c-21 -21 -10 -24 17 -5 10 8 14 16 9 19 -5 3 -17 -3 -26
-14z"/>
<path d="M879 436 c-26 -13 -45 -55 -36 -79 7 -18 55 -52 63 -44 3 3 -4 14
-16 25 -18 17 -20 24 -10 41 6 12 16 18 22 15 7 -5 8 -2 3 6 -5 8 -2 18 9 25
24 18 -4 27 -35 11z"/>
<path d="M934 405 c-9 -19 -9 -25 3 -29 21 -9 23 -8 23 12 0 33 -15 42 -26 17z"/>
<path d="M2397 411 c-41 -26 -46 -36 -10 -17 17 9 35 20 38 26 8 13 6 12 -28
-9z"/>
<path d="M2190 410 c0 -5 5 -10 10 -10 6 0 10 5 10 10 0 6 -4 10 -10 10 -5 0
-10 -4 -10 -10z"/>
<path d="M2093 371 c-61 -31 -85 -51 -65 -58 6 -3 15 -22 18 -44 6 -38 17 -46
41 -31 10 6 8 17 -7 45 -25 46 -25 57 -2 57 10 0 23 5 30 12 9 9 18 6 39 -13
60 -54 63 -55 63 -20 0 20 -5 31 -14 31 -8 0 -23 10 -33 23 l-18 23 -52 -25z"/>
<path d="M990 373 c0 -10 -9 -33 -21 -52 -16 -27 -18 -36 -7 -42 21 -14 25
-11 41 30 17 42 38 62 45 43 4 -14 32 -16 32 -3 0 11 -56 41 -77 41 -7 0 -13
-8 -13 -17z"/>
<path d="M2201 374 c0 -11 3 -14 6 -6 3 7 2 16 -1 19 -3 4 -6 -2 -5 -13z"/>
<path d="M1818 359 c-16 -9 -16 -13 -1 -62 8 -28 18 -71 22 -93 6 -39 7 -41
31 -32 16 6 20 12 13 16 -7 4 -17 41 -24 82 -15 92 -19 101 -41 89z"/>
<path d="M2310 350 c-9 -6 -10 -10 -3 -10 6 0 15 5 18 10 8 12 4 12 -15 0z"/>
<path d="M1090 330 c-9 -16 -7 -28 8 -53 10 -18 17 -40 15 -49 -6 -24 19 -23
34 2 15 22 7 49 -19 68 -21 15 -24 38 -5 45 7 3 5 6 -5 6 -10 1 -22 -8 -28
-19z"/>
<path d="M1737 343 c-3 -4 -1 -30 4 -58 4 -27 8 -69 8 -93 1 -39 3 -43 23 -40
20 3 23 8 20 38 -10 105 -37 182 -55 153z"/>
<path d="M1150 331 c0 -6 4 -13 10 -16 6 -3 7 1 4 9 -7 18 -14 21 -14 7z"/>
<path d="M1431 301 c-24 -22 -31 -38 -31 -66 0 -51 44 -95 95 -95 55 0 75 15
75 55 0 31 -3 35 -26 35 -19 0 -25 -4 -20 -15 3 -8 1 -26 -4 -40 -12 -31 -45
-33 -61 -4 -16 30 -6 115 16 139 30 33 -7 25 -44 -9z"/>
<path d="M1530 316 c0 -2 7 -6 15 -10 8 -3 15 -1 15 4 0 6 -7 10 -15 10 -8 0
-15 -2 -15 -4z"/>
<path d="M1953 309 c9 -6 15 -14 12 -20 -4 -5 3 -9 14 -9 26 0 27 16 2 30 -26
13 -52 13 -28 -1z"/>
<path d="M1906 294 c-23 -60 18 -117 71 -98 15 5 28 15 31 22 3 11 0 11 -16 1
-28 -18 -49 1 -57 52 -7 41 -19 50 -29 23z"/>
<path d="M2200 261 c0 -11 -4 -23 -10 -26 -15 -9 -12 -25 5 -25 10 0 15 11 15
35 0 19 -2 35 -5 35 -3 0 -5 -9 -5 -19z"/>
<path d="M1618 262 c-19 -4 -24 -17 -9 -26 5 -3 14 1 21 9 15 18 12 23 -12 17z"/>
<path d="M1662 224 c6 -53 2 -74 -14 -74 -6 0 -8 13 -6 30 4 24 1 30 -14 30
-22 0 -40 -40 -26 -57 5 -7 31 -11 59 -11 39 1 49 5 44 16 -3 7 -5 31 -5 52 0
30 -5 42 -22 51 -20 11 -21 10 -16 -37z"/>
<path d="M1060 251 c0 -5 5 -13 10 -16 6 -3 10 -2 10 4 0 5 -4 13 -10 16 -5 3
-10 2 -10 -4z"/>
<path d="M1308 163 c7 -3 16 -2 19 1 4 3 -2 6 -13 5 -11 0 -14 -3 -6 -6z"/>
</g>
</svg>
