<svg width="119" height="26" viewBox="0 0 119 26" fill="none" xmlns="http://www.w3.org/2000/svg">
<path d="M5.798 18.69C5.33 18.69 4.862 18.6207 4.394 18.482C3.926 18.3433 3.52733 18.118 3.198 17.806C2.86867 17.494 2.66933 17.078 2.6 16.558C2.27067 16.402 1.91533 16.1853 1.534 15.908C1.17 15.6307 0.858 15.31 0.598 14.946C0.338 14.582 0.208 14.2007 0.208 13.802C0.208 13.2473 0.450667 12.7793 0.936 12.398C1.43867 12.0167 2.09733 11.7047 2.912 11.462C3.72667 11.202 4.61067 11.0027 5.564 10.864C6.53467 10.708 7.49667 10.5953 8.45 10.526C9.40333 10.4567 10.27 10.4133 11.05 10.396C11.8473 10.3613 12.4627 10.344 12.896 10.344C13.1387 9.91067 13.4333 9.39933 13.78 8.81C14.144 8.20333 14.5427 7.588 14.976 6.964C15.4267 6.32267 15.8947 5.72467 16.38 5.17C16.8827 4.61533 17.394 4.16467 17.914 3.818C18.434 3.454 18.9627 3.246 19.5 3.194C18.668 2.96867 17.7667 2.79533 16.796 2.674C15.8427 2.55267 14.8807 2.466 13.91 2.414C12.9393 2.34467 12.0207 2.31 11.154 2.31C10.7727 2.31 10.2613 2.32733 9.62 2.362C8.996 2.37933 8.32867 2.44 7.618 2.544C6.90733 2.648 6.23133 2.81267 5.59 3.038C4.966 3.246 4.446 3.54067 4.03 3.922C3.63133 4.286 3.432 4.754 3.432 5.326C3.432 5.93267 3.60533 6.496 3.952 7.016C4.316 7.51867 4.76667 7.96067 5.304 8.342C5.84133 8.72333 6.36133 9.02667 6.864 9.252C6.916 9.26933 6.994 9.31267 7.098 9.382C7.202 9.434 7.254 9.49467 7.254 9.564C7.254 9.616 7.21067 9.642 7.124 9.642C7.05467 9.642 6.97667 9.63333 6.89 9.616C6.82067 9.58133 6.75133 9.55533 6.682 9.538C6.12733 9.34733 5.54667 9.08733 4.94 8.758C4.33333 8.41133 3.822 7.98667 3.406 7.484C2.99 6.964 2.782 6.366 2.782 5.69C2.782 5.55133 2.79067 5.41267 2.808 5.274C2.82533 5.118 2.86 4.97933 2.912 4.858C3.13733 4.078 3.50133 3.44533 4.004 2.96C4.524 2.47467 5.122 2.102 5.798 1.842C6.49133 1.56467 7.21067 1.38267 7.956 1.296C8.71867 1.192 9.44667 1.14 10.14 1.14C11.284 1.14 12.4107 1.22667 13.52 1.4C14.6293 1.556 15.7387 1.74667 16.848 1.972C17.9573 2.19733 19.0667 2.39667 20.176 2.57C21.2853 2.726 22.4033 2.804 23.53 2.804C23.8247 2.804 24.05 2.752 24.206 2.648C24.3793 2.52667 24.5093 2.414 24.596 2.31C24.7 2.18867 24.7953 2.128 24.882 2.128C25.0207 2.128 25.142 2.18867 25.246 2.31C25.35 2.414 25.402 2.52667 25.402 2.648C25.402 2.73467 25.376 2.79533 25.324 2.83C25.272 2.86467 25.2027 2.89933 25.116 2.934C24.5613 3.21133 24.0933 3.65333 23.712 4.26C23.3307 4.84933 22.9667 5.39533 22.62 5.898C22.5853 5.95 22.5247 6.028 22.438 6.132C22.3513 6.236 22.2733 6.288 22.204 6.288C22.152 6.288 22.126 6.25333 22.126 6.184C22.126 5.95867 22.204 5.69867 22.36 5.404C22.5333 5.092 22.698 4.78867 22.854 4.494C23.01 4.182 23.088 3.93067 23.088 3.74C23.088 3.65333 23.036 3.584 22.932 3.532C22.6893 3.44533 22.4207 3.38467 22.126 3.35C21.8487 3.31533 21.58 3.298 21.32 3.298C20.384 3.298 19.5693 3.532 18.876 4C18.1827 4.468 17.5673 5.066 17.03 5.794C16.4927 6.522 16.0073 7.29333 15.574 8.108C15.158 8.92267 14.768 9.67667 14.404 10.37C14.716 10.37 15.028 10.3787 15.34 10.396C15.652 10.4133 15.9553 10.4567 16.25 10.526C16.2673 10.5433 16.328 10.5693 16.432 10.604C16.536 10.6213 16.588 10.6473 16.588 10.682C16.588 10.734 16.4753 10.7773 16.25 10.812C16.0247 10.8293 15.8773 10.8467 15.808 10.864L14.092 10.942C14.0227 11.0633 13.9533 11.176 13.884 11.28C13.832 11.384 13.7713 11.4967 13.702 11.618C13.078 12.606 12.4713 13.542 11.882 14.426C11.31 15.2927 10.6427 16.0727 9.88 16.766C9.11733 17.4593 8.164 18.0313 7.02 18.482C6.82933 18.5513 6.63 18.6033 6.422 18.638C6.214 18.6727 6.006 18.69 5.798 18.69ZM5.382 18.196C6.006 18.196 6.604 18.0227 7.176 17.676C7.76533 17.3467 8.32 16.9133 8.84 16.376C9.37733 15.8213 9.87133 15.2233 10.322 14.582C10.7727 13.9407 11.18 13.308 11.544 12.684C11.9253 12.06 12.246 11.514 12.506 11.046C12.142 11.0633 11.596 11.098 10.868 11.15C10.1573 11.1847 9.36 11.2453 8.476 11.332C7.60933 11.4187 6.72533 11.54 5.824 11.696C4.94 11.8347 4.11667 12.0167 3.354 12.242C2.59133 12.4673 1.976 12.7447 1.508 13.074C1.05733 13.386 0.832 13.7587 0.832 14.192C0.832 14.6427 1.03133 15.0153 1.43 15.31C1.846 15.6047 2.236 15.8387 2.6 16.012C2.6 15.908 2.626 15.6913 2.678 15.362C2.74733 15.0327 2.834 14.7207 2.938 14.426C3.042 14.114 3.16333 13.958 3.302 13.958C3.33667 13.958 3.354 13.9927 3.354 14.062C3.37133 14.114 3.38 14.1487 3.38 14.166V14.374C3.34533 14.5993 3.31067 14.816 3.276 15.024C3.24133 15.2147 3.224 15.4227 3.224 15.648C3.224 15.752 3.224 15.8647 3.224 15.986C3.24133 16.09 3.25867 16.194 3.276 16.298C3.744 16.4713 4.316 16.6447 4.992 16.818C5.668 16.9913 6.25733 17.078 6.76 17.078C6.812 17.078 6.864 17.0693 6.916 17.052C6.98533 17.052 7.05467 17.052 7.124 17.052C7.14133 17.052 7.16733 17.052 7.202 17.052C7.23667 17.052 7.254 17.0693 7.254 17.104C7.254 17.1733 7.16733 17.2167 6.994 17.234C6.82067 17.2687 6.71667 17.286 6.682 17.286C6.14467 17.286 5.59 17.2513 5.018 17.182C4.46333 17.1127 3.926 17 3.406 16.844C3.562 17.312 3.80467 17.65 4.134 17.858C4.48067 18.0833 4.89667 18.196 5.382 18.196Z" fill="#2DAD73"/>
<path d="M16.9884 17.052C16.503 17.052 16.2604 16.8007 16.2604 16.298C16.2604 16.0727 16.295 15.83 16.3644 15.57C16.451 15.31 16.529 15.076 16.5984 14.868C17.0664 13.6547 17.6384 12.3893 18.3144 11.072C18.9904 9.73733 19.7097 8.43733 20.4724 7.172C21.235 5.88933 21.9804 4.71067 22.7084 3.636C22.6737 3.49733 22.6564 3.376 22.6564 3.272C22.6564 3.18533 22.665 3.116 22.6824 3.064C22.7344 2.99467 22.8297 2.84733 22.9684 2.622C23.107 2.39667 23.2457 2.18 23.3844 1.972C23.5404 1.74667 23.6357 1.61667 23.6704 1.582C23.757 1.478 23.9217 1.4 24.1644 1.348C24.4244 1.296 24.6237 1.27 24.7624 1.27C24.849 1.27 24.979 1.28733 25.1524 1.322C25.343 1.33933 25.4384 1.40867 25.4384 1.53C25.4384 1.582 25.4297 1.608 25.4124 1.608C25.135 2.00667 24.849 2.414 24.5544 2.83C24.277 3.22867 23.9997 3.62733 23.7224 4.026C22.717 5.534 21.7724 7.07667 20.8884 8.654C20.0217 10.214 19.1897 11.8 18.3924 13.412C18.2364 13.7067 18.063 14.0793 17.8724 14.53C17.699 14.9807 17.6124 15.3707 17.6124 15.7C17.6124 16.0293 17.7424 16.194 18.0024 16.194C18.2277 16.194 18.479 16.116 18.7564 15.96C19.0337 15.804 19.2937 15.6307 19.5364 15.44C19.7964 15.232 20.013 15.05 20.1864 14.894C20.377 14.738 20.4984 14.66 20.5504 14.66C20.585 14.66 20.6024 14.6947 20.6024 14.764C20.6024 14.8333 20.5677 14.9287 20.4984 15.05C20.4464 15.154 20.3944 15.2407 20.3424 15.31C20.0304 15.674 19.5884 16.0207 19.0164 16.35C18.4444 16.6793 17.933 16.896 17.4824 17C17.413 17.0173 17.335 17.026 17.2484 17.026C17.1617 17.0433 17.075 17.052 16.9884 17.052ZM21.8961 17.208C21.5147 17.208 21.2114 17.1387 20.9861 17C20.7781 16.844 20.6741 16.5493 20.6741 16.116C20.6741 15.5787 20.8127 14.9807 21.0901 14.322C21.3847 13.6633 21.7314 13.0307 22.1301 12.424C22.5287 11.8 22.9014 11.2887 23.2481 10.89V10.838C23.2481 10.422 23.4127 10.084 23.7421 9.824C24.0887 9.54667 24.4874 9.34733 24.9381 9.226C25.3887 9.08733 25.7787 9.018 26.1081 9.018C26.5587 9.018 26.9314 9.122 27.2261 9.33C27.5381 9.538 27.6941 9.89333 27.6941 10.396C27.6941 10.8293 27.5814 11.332 27.3561 11.904C27.1307 12.4587 26.8361 13.0307 26.4721 13.62C26.1254 14.192 25.7527 14.7207 25.3541 15.206C24.9554 15.674 24.5914 16.0467 24.2621 16.324C24.5221 16.636 24.8601 16.792 25.2761 16.792C25.3107 16.792 25.3541 16.8007 25.4061 16.818C25.4581 16.8353 25.4841 16.8613 25.4841 16.896C25.4841 16.9653 25.4494 17.0087 25.3801 17.026C25.3281 17.0433 25.2761 17.052 25.2241 17.052C24.9987 17.052 24.7821 17 24.5741 16.896C24.3834 16.7747 24.2101 16.6273 24.0541 16.454C23.4127 16.9567 22.6934 17.208 21.8961 17.208ZM24.0281 15.986C24.4094 15.622 24.7821 15.1193 25.1461 14.478C25.5274 13.8193 25.8481 13.1433 26.1081 12.45C26.3681 11.7393 26.4981 11.124 26.4981 10.604C26.4981 10.396 26.4547 10.1793 26.3681 9.954C26.2814 9.72867 26.0994 9.616 25.8221 9.616C25.6141 9.616 25.4147 9.694 25.2241 9.85C25.0334 10.006 24.8947 10.1793 24.8081 10.37C24.8427 10.422 24.8774 10.4913 24.9121 10.578C24.9641 10.6647 24.9901 10.7427 24.9901 10.812C24.9901 10.8813 24.9727 10.9247 24.9381 10.942C24.7127 11.0633 24.4961 11.202 24.2881 11.358C24.0974 11.4967 23.9067 11.6613 23.7161 11.852C23.6467 12.112 23.5947 12.3807 23.5601 12.658C23.5254 12.9353 23.5081 13.2127 23.5081 13.49C23.5081 13.8887 23.5427 14.3133 23.6121 14.764C23.6987 15.2147 23.8374 15.622 24.0281 15.986ZM22.9361 16.558C23.1094 16.558 23.2654 16.5233 23.4041 16.454C23.5601 16.3673 23.6987 16.272 23.8201 16.168C23.5427 15.7347 23.3434 15.232 23.2221 14.66C23.1007 14.088 23.0401 13.5507 23.0401 13.048C22.8147 13.412 22.6067 13.7933 22.4161 14.192C22.2254 14.5733 22.1301 14.9893 22.1301 15.44C22.1301 15.7 22.1821 15.9513 22.2861 16.194C22.4074 16.4367 22.6241 16.558 22.9361 16.558ZM27.977 17.052C27.6823 17.052 27.4743 16.974 27.353 16.818C27.2317 16.662 27.171 16.4453 27.171 16.168C27.171 15.4227 27.3617 14.6687 27.743 13.906C28.1417 13.1433 28.5143 12.45 28.861 11.826H28.783C28.679 11.826 28.627 11.7827 28.627 11.696C28.627 11.644 28.6443 11.6007 28.679 11.566C28.9043 11.15 29.095 10.7947 29.251 10.5C29.407 10.188 29.615 9.954 29.875 9.798C30.135 9.642 30.5337 9.564 31.071 9.564C31.175 9.564 31.227 9.616 31.227 9.72C31.227 9.84133 31.1317 10.0753 30.941 10.422C30.7503 10.7513 30.5423 11.0807 30.317 11.41C30.0917 11.7393 29.9357 11.9733 29.849 12.112C29.7103 12.3373 29.5283 12.684 29.303 13.152C29.0777 13.6027 28.8783 14.062 28.705 14.53C28.549 14.9807 28.471 15.336 28.471 15.596C28.471 15.6827 28.4883 15.7693 28.523 15.856C28.5577 15.9253 28.627 15.96 28.731 15.96C28.887 15.96 29.0777 15.882 29.303 15.726C29.5283 15.5527 29.7017 15.4227 29.823 15.336C30.499 14.764 31.1317 14.1053 31.721 13.36C32.3277 12.6147 32.8563 11.8693 33.307 11.124C33.3243 11.0893 33.333 11.0373 33.333 10.968C33.3503 10.8987 33.3677 10.8553 33.385 10.838C33.437 10.6473 33.5063 10.4567 33.593 10.266C33.697 10.058 33.8443 9.89333 34.035 9.772C34.1563 9.68533 34.3383 9.616 34.581 9.564C34.8237 9.512 35.023 9.486 35.179 9.486C35.2483 9.486 35.3263 9.50333 35.413 9.538C35.517 9.55533 35.569 9.60733 35.569 9.694C35.569 9.78067 35.491 9.91933 35.335 10.11C35.1963 10.3007 35.049 10.4913 34.893 10.682C34.737 10.8553 34.6243 11.0027 34.555 11.124C34.4163 11.384 34.2863 11.7653 34.165 12.268C34.0437 12.7533 33.9483 13.2473 33.879 13.75C33.827 14.2527 33.801 14.66 33.801 14.972C33.801 15.128 33.8097 15.31 33.827 15.518C33.8617 15.726 33.9223 15.9167 34.009 16.09C34.0957 16.246 34.243 16.324 34.451 16.324C34.7977 16.324 35.153 16.168 35.517 15.856C35.881 15.5267 36.2277 15.128 36.557 14.66C36.9037 14.192 37.207 13.7327 37.467 13.282C37.727 12.814 37.909 12.45 38.013 12.19C38.1517 11.8433 38.2643 11.488 38.351 11.124C38.4377 10.76 38.481 10.3873 38.481 10.006C38.481 9.486 38.3597 9.00933 38.117 8.576C38.0997 8.54133 38.0823 8.50667 38.065 8.472C38.0477 8.42 38.039 8.37667 38.039 8.342C38.039 8.22067 38.117 8.16 38.273 8.16C38.5677 8.16 38.793 8.25533 38.949 8.446C39.105 8.63667 39.2177 8.87067 39.287 9.148C39.3563 9.408 39.391 9.65067 39.391 9.876C39.391 10.188 39.3563 10.5087 39.287 10.838C39.2177 11.15 39.1223 11.4533 39.001 11.748C38.8277 12.164 38.559 12.6667 38.195 13.256C37.831 13.8453 37.4063 14.426 36.921 14.998C36.4357 15.57 35.9243 16.0467 35.387 16.428C34.867 16.8093 34.3557 17 33.853 17C33.3677 17 33.0383 16.8353 32.865 16.506C32.6917 16.1593 32.605 15.7693 32.605 15.336C32.605 14.868 32.6483 14.4 32.735 13.932C32.8217 13.464 32.8823 12.9873 32.917 12.502C32.709 12.7793 32.397 13.1693 31.981 13.672C31.5823 14.1747 31.1317 14.686 30.629 15.206C30.1437 15.726 29.667 16.168 29.199 16.532C28.731 16.8787 28.3237 17.052 27.977 17.052ZM39.7644 17.182C39.383 17.182 39.1317 17.1213 39.0104 17C38.889 16.8787 38.8284 16.6273 38.8284 16.246C38.8284 15.83 38.9237 15.3533 39.1144 14.816C39.3224 14.2787 39.513 13.828 39.6864 13.464C39.6864 13.4467 39.6777 13.438 39.6604 13.438C39.6604 13.4207 39.6604 13.4033 39.6604 13.386C39.6604 13.2993 39.6864 13.23 39.7384 13.178C39.8077 13.126 39.8597 13.074 39.8944 13.022C39.981 12.8833 40.059 12.7447 40.1284 12.606C40.1977 12.4673 40.267 12.3373 40.3364 12.216C40.631 11.748 40.9864 11.2973 41.4024 10.864C41.8357 10.4307 42.321 10.136 42.8584 9.98C43.049 9.928 43.231 9.902 43.4044 9.902C43.439 9.902 43.4737 9.91067 43.5084 9.928C43.5604 9.928 43.5864 9.94533 43.5864 9.98C43.5864 10.032 43.5344 10.0927 43.4304 10.162C43.3437 10.2313 43.283 10.2833 43.2484 10.318C42.971 10.5433 42.6677 10.89 42.3384 11.358C42.0264 11.826 41.775 12.2073 41.5844 12.502C41.983 12.4327 42.373 12.3807 42.7544 12.346C43.153 12.3113 43.543 12.3113 43.9244 12.346C44.115 12.0687 44.2884 11.7307 44.4444 11.332C44.6177 10.916 44.7044 10.5347 44.7044 10.188C44.7044 9.99733 44.6784 9.88467 44.6264 9.85C44.5917 9.81533 44.4964 9.798 44.3404 9.798C44.3057 9.798 44.2537 9.78933 44.1844 9.772C44.115 9.75467 44.0804 9.72 44.0804 9.668C44.0804 9.59867 44.1584 9.538 44.3144 9.486C44.4704 9.434 44.635 9.39933 44.8084 9.382C44.9817 9.34733 45.0944 9.33 45.1464 9.33C45.6144 9.33 45.8484 9.54667 45.8484 9.98C45.8484 10.2227 45.7704 10.5173 45.6144 10.864C45.4757 11.1933 45.2937 11.5053 45.0684 11.8C44.8604 12.0773 44.6524 12.2767 44.4444 12.398C44.4964 12.398 44.6004 12.424 44.7564 12.476C44.9297 12.5107 45.0857 12.554 45.2244 12.606C45.3804 12.658 45.4584 12.7187 45.4584 12.788C45.4584 12.84 45.4064 12.8747 45.3024 12.892C45.1984 12.892 45.129 12.892 45.0944 12.892C44.9384 12.892 44.7824 12.8833 44.6264 12.866C44.4704 12.8313 44.3144 12.814 44.1584 12.814C43.673 12.814 43.179 12.8487 42.6764 12.918C42.191 12.9873 41.7057 13.074 41.2204 13.178C41.047 13.49 40.8477 13.8887 40.6224 14.374C40.4144 14.8593 40.3104 15.2927 40.3104 15.674C40.3104 16.2807 40.6224 16.584 41.2464 16.584C41.697 16.584 42.1304 16.4627 42.5464 16.22C42.9797 15.9773 43.3784 15.6913 43.7424 15.362C44.1064 15.0327 44.401 14.7467 44.6264 14.504C44.8517 14.2613 44.9817 14.14 45.0164 14.14C45.0684 14.14 45.0944 14.1747 45.0944 14.244C45.0944 14.452 44.973 14.7033 44.7304 14.998C44.4877 15.2753 44.2884 15.4747 44.1324 15.596C43.5257 16.064 42.841 16.4453 42.0784 16.74C41.333 17.0347 40.5617 17.182 39.7644 17.182ZM45.358 17.39C45.2367 17.39 45.1847 17.3467 45.202 17.26C45.6527 16.4627 46.0513 15.648 46.398 14.816C46.7447 13.9667 47.0827 13.1173 47.412 12.268L47.698 11.514C47.698 11.462 47.6547 11.4447 47.568 11.462C47.4813 11.4793 47.438 11.4533 47.438 11.384C47.438 11.3493 47.5073 11.2193 47.646 10.994C47.7847 10.7513 47.932 10.5087 48.088 10.266C48.244 10.006 48.3393 9.85 48.374 9.798C48.4433 9.694 48.5993 9.59 48.842 9.486C49.0847 9.382 49.2667 9.33 49.388 9.33C49.5787 9.33 49.674 9.408 49.674 9.564C49.674 9.616 49.6653 9.668 49.648 9.72C49.6307 9.772 49.6133 9.81533 49.596 9.85C49.336 10.474 49.05 11.098 48.738 11.722C48.4433 12.3287 48.2007 12.9613 48.01 13.62C48.5127 13.0133 49.0587 12.424 49.648 11.852C50.2547 11.2627 50.87 10.7253 51.494 10.24C51.6673 10.1013 51.858 9.97133 52.066 9.85C52.2913 9.72867 52.5167 9.668 52.742 9.668C53.0193 9.668 53.1927 9.772 53.262 9.98C53.3313 10.1707 53.366 10.37 53.366 10.578C53.366 10.8553 53.2793 11.15 53.106 11.462C52.9327 11.774 52.6813 11.93 52.352 11.93C52.2133 11.93 52.144 11.878 52.144 11.774C52.144 11.6873 52.1527 11.618 52.17 11.566C52.1873 11.4967 52.196 11.4273 52.196 11.358C52.196 11.2713 52.1613 11.1673 52.092 11.046C52.0227 10.9247 51.9447 10.864 51.858 10.864C51.6327 10.864 51.3293 11.0027 50.948 11.28C50.5667 11.5573 50.168 11.8953 49.752 12.294C49.3533 12.6927 48.9893 13.0827 48.66 13.464C48.348 13.828 48.1227 14.0967 47.984 14.27C47.7933 14.5473 47.6287 14.8333 47.49 15.128C47.3513 15.4053 47.2387 15.6913 47.152 15.986C47.1173 16.09 47.0827 16.2027 47.048 16.324C47.0133 16.428 46.9787 16.5233 46.944 16.61C46.9093 16.6967 46.7793 16.8093 46.554 16.948C46.3287 17.0693 46.0947 17.1733 45.852 17.26C45.6267 17.3467 45.462 17.39 45.358 17.39ZM53.1349 17.598C53.0655 17.598 52.9095 17.5807 52.6669 17.546C52.4242 17.5287 52.3029 17.4507 52.3029 17.312C52.3029 17.2253 52.3635 17.13 52.4849 17.026C52.6235 16.9393 52.7275 16.87 52.7969 16.818C53.2822 16.5407 53.8889 16.3413 54.6169 16.22C55.3449 16.0813 55.9775 15.986 56.5149 15.934C56.5495 15.8647 56.5669 15.7953 56.5669 15.726C56.5669 15.4487 56.4369 15.1973 56.1769 14.972C55.9169 14.7467 55.6135 14.5213 55.2669 14.296C54.9375 14.0707 54.6429 13.8193 54.3829 13.542C54.1229 13.2473 53.9929 12.9093 53.9929 12.528C53.9929 12.424 54.0102 12.3287 54.0449 12.242C54.0795 12.138 54.1142 12.0427 54.1489 11.956C54.5475 11.2107 55.0849 10.6473 55.7609 10.266C56.4542 9.88467 57.1995 9.60733 57.9969 9.434C58.0662 9.39933 58.1355 9.382 58.2049 9.382C58.2742 9.382 58.3435 9.382 58.4129 9.382C58.6555 9.382 58.8549 9.45133 59.0109 9.59C59.1842 9.71133 59.2709 9.902 59.2709 10.162C59.2709 10.4913 59.1495 10.812 58.9069 11.124C58.6642 11.4187 58.3869 11.6093 58.0749 11.696H57.9969C57.9795 11.696 57.9709 11.6787 57.9709 11.644C57.9709 11.5053 57.9969 11.3667 58.0489 11.228C58.1182 11.0893 58.1529 10.9507 58.1529 10.812C58.1529 10.5693 58.0575 10.4047 57.8669 10.318C57.6935 10.214 57.4942 10.162 57.2689 10.162C56.7835 10.162 56.3155 10.318 55.8649 10.63C55.4315 10.9247 55.2149 11.332 55.2149 11.852C55.2149 12.268 55.3275 12.606 55.5529 12.866C55.7955 13.126 56.0642 13.3513 56.3589 13.542C56.6535 13.7327 56.9135 13.9407 57.1389 14.166C57.3815 14.374 57.5029 14.6513 57.5029 14.998C57.5029 15.1713 57.4595 15.336 57.3729 15.492C57.3035 15.648 57.2255 15.7953 57.1389 15.934C57.2949 15.9167 57.4422 15.908 57.5809 15.908C57.7369 15.8907 57.8929 15.882 58.0489 15.882C58.1529 15.882 58.2049 15.908 58.2049 15.96C58.2049 16.0293 58.1702 16.0813 58.1009 16.116C58.0315 16.1507 57.9709 16.1767 57.9189 16.194C57.7455 16.2113 57.5722 16.2373 57.3989 16.272C57.2255 16.3067 57.0435 16.3413 56.8529 16.376C56.3675 16.8267 55.7869 17.1387 55.1109 17.312C54.4522 17.5027 53.7935 17.598 53.1349 17.598ZM67.6575 24.306C66.9988 24.306 66.4442 24.1327 65.9935 23.786C65.5602 23.4567 65.3435 22.9453 65.3435 22.252C65.3435 22.148 65.3695 21.9227 65.4215 21.576C65.4908 21.2467 65.5775 20.9347 65.6815 20.64C65.8028 20.3453 65.9328 20.198 66.0715 20.198C66.1408 20.198 66.1755 20.25 66.1755 20.354C66.1755 20.4753 66.1582 20.6053 66.1235 20.744C66.0888 20.8827 66.0715 21.0213 66.0715 21.16C66.0715 21.5067 66.1322 21.8967 66.2535 22.33C66.3748 22.7807 66.5655 23.162 66.8255 23.474C67.1028 23.8033 67.4582 23.968 67.8915 23.968C68.5328 23.968 69.1742 23.7167 69.8155 23.214C70.4742 22.7287 71.1068 22.096 71.7135 21.316C72.3202 20.536 72.8835 19.704 73.4035 18.82C73.9408 17.936 74.4088 17.0953 74.8075 16.298C75.2235 15.5007 75.5442 14.8507 75.7695 14.348C74.2095 15.492 72.5628 16.3933 70.8295 17.052C69.0962 17.7107 67.2502 18.04 65.2915 18.04C64.5288 18.04 63.7402 17.9707 62.9255 17.832C62.1282 17.6933 61.3828 17.4507 60.6895 17.104C60.0135 16.7747 59.4588 16.3067 59.0255 15.7C58.6095 15.0933 58.4015 14.322 58.4015 13.386C58.4015 12.502 58.5835 11.6267 58.9475 10.76C59.3115 9.89333 59.7882 9.07 60.3775 8.29C60.9668 7.49267 61.6082 6.76467 62.3015 6.106C63.0122 5.44733 63.7055 4.87533 64.3815 4.39C65.0055 3.93933 65.6555 3.532 66.3315 3.168C67.0248 2.804 67.7268 2.48333 68.4375 2.206C69.3388 1.85933 70.2488 1.59067 71.1675 1.4C72.0862 1.192 73.0222 1.05333 73.9755 0.983999C74.0102 0.966665 74.0535 0.957999 74.1055 0.957999C74.1575 0.957999 74.2008 0.957999 74.2355 0.957999C74.5648 0.957999 74.9462 1.00133 75.3795 1.088C75.8128 1.15733 76.2202 1.28733 76.6015 1.478C77.0002 1.65133 77.2948 1.88533 77.4855 2.18C77.5895 2.04133 77.7282 1.82467 77.9015 1.53C78.0922 1.23533 78.1875 1.01867 78.1875 0.88C78.1875 0.793333 78.2222 0.698 78.2915 0.593999C78.3608 0.489999 78.4388 0.437999 78.5255 0.437999C78.6122 0.437999 78.6642 0.481333 78.6815 0.567999C78.6988 0.637333 78.7075 0.698 78.7075 0.75C78.7075 0.854 78.6468 1.04467 78.5255 1.322C78.4215 1.59933 78.3002 1.87667 78.1615 2.154C78.0228 2.414 77.9275 2.60467 77.8755 2.726C77.9622 2.84733 78.0575 3.02933 78.1615 3.272C78.2655 3.51467 78.3175 3.70533 78.3175 3.844C78.3175 3.948 78.2915 4.08667 78.2395 4.26C78.1875 4.416 78.1095 4.52 78.0055 4.572C78.0055 4.572 77.9535 4.468 77.8495 4.26C77.7455 4.03467 77.6762 3.896 77.6415 3.844C77.4682 4.19067 77.2688 4.61533 77.0435 5.118C76.8182 5.62067 76.5755 6.01933 76.3155 6.314C76.2462 6.38333 76.1595 6.42667 76.0555 6.444C75.9688 6.46133 75.8822 6.47 75.7955 6.47C75.7435 6.47 75.6222 6.46133 75.4315 6.444C75.2582 6.40933 75.0848 6.366 74.9115 6.314C74.7555 6.262 74.6775 6.21 74.6775 6.158C74.6775 6.01933 74.7728 5.81133 74.9635 5.534C75.1542 5.25667 75.3882 4.95333 75.6655 4.624C75.9428 4.29467 76.2028 3.98267 76.4455 3.688C76.6882 3.376 76.8615 3.142 76.9655 2.986C76.6535 2.43133 76.2462 2.05 75.7435 1.842C75.2408 1.61667 74.6862 1.504 74.0795 1.504C74.0275 1.504 73.9755 1.504 73.9235 1.504C73.8715 1.504 73.8195 1.51267 73.7675 1.53C72.0862 1.634 70.5002 2.01533 69.0095 2.674C68.3855 2.95133 67.7788 3.272 67.1895 3.636C66.6175 3.98267 66.0542 4.364 65.4995 4.78C64.8928 5.26533 64.2775 5.83733 63.6535 6.496C63.0295 7.13733 62.4575 7.83933 61.9375 8.602C61.4348 9.36467 61.0275 10.162 60.7155 10.994C60.4035 11.8087 60.2475 12.6233 60.2475 13.438C60.2475 14.4607 60.4988 15.2753 61.0015 15.882C61.5215 16.4887 62.1802 16.922 62.9775 17.182C63.7922 17.442 64.6415 17.572 65.5255 17.572C66.7215 17.572 67.9522 17.3813 69.2175 17C70.5002 16.636 71.7308 16.1507 72.9095 15.544C74.1055 14.92 75.1802 14.2613 76.1335 13.568C76.3242 13.1 76.5062 12.6233 76.6795 12.138C76.8702 11.6527 77.0695 11.176 77.2775 10.708L77.3555 10.422C76.7662 10.4393 76.0208 10.4567 75.1195 10.474C74.2182 10.4913 73.2822 10.5433 72.3115 10.63C71.3582 10.7167 70.4655 10.864 69.6335 11.072C68.8188 11.2627 68.1775 11.54 67.7095 11.904C67.5882 12.0253 67.4842 12.1467 67.3975 12.268C67.3282 12.372 67.2502 12.502 67.1635 12.658C67.1462 12.71 67.1115 12.7707 67.0595 12.84C67.0075 12.9093 66.9382 12.944 66.8515 12.944C66.7995 12.944 66.7735 12.9007 66.7735 12.814C66.7735 12.7447 66.7822 12.684 66.7995 12.632C67.1115 11.748 67.5275 11.1067 68.0475 10.708C68.5675 10.3093 69.1742 10.058 69.8675 9.954C70.5608 9.83267 71.3235 9.76333 72.1555 9.746C72.4155 9.746 72.6755 9.746 72.9355 9.746C73.1955 9.72867 73.4555 9.72 73.7155 9.72C74.3742 9.72 75.0328 9.73733 75.6915 9.772C76.3502 9.78933 77.0002 9.84133 77.6415 9.928C77.7975 9.772 78.0055 9.668 78.2655 9.616C78.5255 9.54667 78.7595 9.512 78.9675 9.512C79.0542 9.512 79.1582 9.52933 79.2795 9.564C79.4182 9.58133 79.4875 9.65067 79.4875 9.772C79.4875 9.84133 79.4615 9.902 79.4095 9.954C79.3748 10.006 79.3402 10.058 79.3055 10.11C79.1495 10.3353 79.0022 10.578 78.8635 10.838C78.7422 11.098 78.6122 11.3493 78.4735 11.592C78.3002 11.904 78.1268 12.2247 77.9535 12.554C77.7975 12.866 77.6242 13.178 77.4335 13.49C76.8962 14.4607 76.3502 15.4747 75.7955 16.532C75.2582 17.5893 74.6602 18.6033 74.0015 19.574C73.3602 20.562 72.6235 21.446 71.7915 22.226C70.9595 23.0233 69.9888 23.6473 68.8795 24.098C68.6888 24.1673 68.4895 24.2193 68.2815 24.254C68.0735 24.2887 67.8655 24.306 67.6575 24.306ZM84.9243 17.208C84.4563 17.208 84.1443 17.026 83.9883 16.662C83.8323 16.2807 83.7543 15.8993 83.7543 15.518C83.7543 15.0847 83.789 14.6513 83.8583 14.218C83.9277 13.7847 84.0057 13.36 84.0923 12.944C83.919 13.2387 83.6417 13.62 83.2603 14.088C82.879 14.556 82.4543 15.0327 81.9863 15.518C81.5183 15.986 81.0417 16.3847 80.5563 16.714C80.0883 17.026 79.6723 17.182 79.3083 17.182C79.1003 17.182 78.9617 17.1127 78.8923 16.974C78.8403 16.8353 78.8143 16.6793 78.8143 16.506C78.8143 16.142 78.901 15.6827 79.0743 15.128C79.2477 14.5733 79.4903 13.9927 79.8023 13.386C80.1143 12.762 80.461 12.19 80.8423 11.67C81.241 11.15 81.6483 10.734 82.0643 10.422C82.4977 10.0927 82.931 9.94533 83.3643 9.98C83.555 9.876 83.763 9.78067 83.9883 9.694C84.2137 9.60733 84.439 9.564 84.6643 9.564C84.8377 9.564 85.011 9.58133 85.1843 9.616C85.375 9.63333 85.557 9.65933 85.7303 9.694C85.817 9.65933 85.9123 9.62467 86.0163 9.59C86.1203 9.55533 86.2243 9.538 86.3283 9.538C86.519 9.538 86.6143 9.62467 86.6143 9.798C86.6143 9.88467 86.5623 10.058 86.4583 10.318C86.3717 10.5607 86.2677 10.7947 86.1463 11.02C86.0423 11.228 85.9557 11.3493 85.8863 11.384C85.7303 11.696 85.583 12.1033 85.4443 12.606C85.3057 13.0913 85.193 13.594 85.1063 14.114C85.0197 14.634 84.9763 15.076 84.9763 15.44C84.9763 15.6307 85.0023 15.8473 85.0543 16.09C85.1237 16.3153 85.2883 16.428 85.5483 16.428C85.843 16.428 86.1377 16.3153 86.4323 16.09C86.7443 15.8473 87.013 15.6133 87.2383 15.388C87.4637 15.1453 87.5937 15.024 87.6283 15.024C87.663 15.024 87.6803 15.0413 87.6803 15.076C87.6803 15.232 87.5937 15.414 87.4203 15.622C87.247 15.83 87.0563 16.0293 86.8483 16.22C86.6403 16.3933 86.4843 16.5233 86.3803 16.61C86.1723 16.766 85.9383 16.9047 85.6783 17.026C85.4357 17.1473 85.1843 17.208 84.9243 17.208ZM80.2183 16.298C80.305 16.298 80.409 16.2633 80.5303 16.194C80.6517 16.1073 80.747 16.038 80.8163 15.986C81.8563 15.2407 82.671 14.3827 83.2603 13.412C83.8497 12.4413 84.4217 11.4013 84.9763 10.292C84.907 10.2573 84.829 10.2313 84.7423 10.214C84.6557 10.1967 84.569 10.188 84.4823 10.188C84.153 10.188 83.8237 10.2747 83.4943 10.448C83.1823 10.6213 82.9223 10.8293 82.7143 11.072C82.385 11.4187 82.047 11.878 81.7003 12.45C81.371 13.0047 81.0677 13.5853 80.7903 14.192C80.513 14.7813 80.305 15.31 80.1663 15.778C80.149 15.83 80.1317 15.882 80.1143 15.934C80.097 15.986 80.0883 16.0467 80.0883 16.116C80.0883 16.2373 80.1317 16.298 80.2183 16.298ZM88.2091 17.052C87.7237 17.052 87.4811 16.8007 87.4811 16.298C87.4811 16.0727 87.5157 15.83 87.5851 15.57C87.6717 15.31 87.7497 15.076 87.8191 14.868C88.2871 13.6547 88.8591 12.3893 89.5351 11.072C90.2111 9.73733 90.9304 8.43733 91.6931 7.172C92.4557 5.88933 93.2011 4.71067 93.9291 3.636C93.8944 3.49733 93.8771 3.376 93.8771 3.272C93.8771 3.18533 93.8857 3.116 93.9031 3.064C93.9551 2.99467 94.0504 2.84733 94.1891 2.622C94.3277 2.39667 94.4664 2.18 94.6051 1.972C94.7611 1.74667 94.8564 1.61667 94.8911 1.582C94.9777 1.478 95.1424 1.4 95.3851 1.348C95.6451 1.296 95.8444 1.27 95.9831 1.27C96.0697 1.27 96.1997 1.28733 96.3731 1.322C96.5637 1.33933 96.6591 1.40867 96.6591 1.53C96.6591 1.582 96.6504 1.608 96.6331 1.608C96.3557 2.00667 96.0697 2.414 95.7751 2.83C95.4977 3.22867 95.2204 3.62733 94.9431 4.026C93.9377 5.534 92.9931 7.07667 92.1091 8.654C91.2424 10.214 90.4104 11.8 89.6131 13.412C89.4571 13.7067 89.2837 14.0793 89.0931 14.53C88.9197 14.9807 88.8331 15.3707 88.8331 15.7C88.8331 16.0293 88.9631 16.194 89.2231 16.194C89.4484 16.194 89.6997 16.116 89.9771 15.96C90.2544 15.804 90.5144 15.6307 90.7571 15.44C91.0171 15.232 91.2337 15.05 91.4071 14.894C91.5977 14.738 91.7191 14.66 91.7711 14.66C91.8057 14.66 91.8231 14.6947 91.8231 14.764C91.8231 14.8333 91.7884 14.9287 91.7191 15.05C91.6671 15.154 91.6151 15.2407 91.5631 15.31C91.2511 15.674 90.8091 16.0207 90.2371 16.35C89.6651 16.6793 89.1537 16.896 88.7031 17C88.6337 17.0173 88.5557 17.026 88.4691 17.026C88.3824 17.0433 88.2957 17.052 88.2091 17.052ZM92.8048 17.052C92.3194 17.052 92.0768 16.8007 92.0768 16.298C92.0768 16.0727 92.1114 15.83 92.1808 15.57C92.2674 15.31 92.3454 15.076 92.4148 14.868C92.8828 13.6547 93.4548 12.3893 94.1308 11.072C94.8068 9.73733 95.5261 8.43733 96.2888 7.172C97.0514 5.88933 97.7968 4.71067 98.5248 3.636C98.4901 3.49733 98.4728 3.376 98.4728 3.272C98.4728 3.18533 98.4814 3.116 98.4988 3.064C98.5508 2.99467 98.6461 2.84733 98.7848 2.622C98.9234 2.39667 99.0621 2.18 99.2008 1.972C99.3568 1.74667 99.4521 1.61667 99.4868 1.582C99.5734 1.478 99.7381 1.4 99.9808 1.348C100.241 1.296 100.44 1.27 100.579 1.27C100.665 1.27 100.795 1.28733 100.969 1.322C101.159 1.33933 101.255 1.40867 101.255 1.53C101.255 1.582 101.246 1.608 101.229 1.608C100.951 2.00667 100.665 2.414 100.371 2.83C100.093 3.22867 99.8161 3.62733 99.5388 4.026C98.5334 5.534 97.5888 7.07667 96.7048 8.654C95.8381 10.214 95.0061 11.8 94.2088 13.412C94.0528 13.7067 93.8794 14.0793 93.6888 14.53C93.5154 14.9807 93.4288 15.3707 93.4288 15.7C93.4288 16.0293 93.5588 16.194 93.8188 16.194C94.0441 16.194 94.2954 16.116 94.5728 15.96C94.8501 15.804 95.1101 15.6307 95.3528 15.44C95.6128 15.232 95.8294 15.05 96.0028 14.894C96.1934 14.738 96.3148 14.66 96.3668 14.66C96.4014 14.66 96.4188 14.6947 96.4188 14.764C96.4188 14.8333 96.3841 14.9287 96.3148 15.05C96.2628 15.154 96.2108 15.2407 96.1588 15.31C95.8468 15.674 95.4048 16.0207 94.8328 16.35C94.2608 16.6793 93.7494 16.896 93.2988 17C93.2294 17.0173 93.1514 17.026 93.0648 17.026C92.9781 17.0433 92.8914 17.052 92.8048 17.052ZM97.4265 17.182C97.0451 17.182 96.7938 17.1213 96.6725 17C96.5511 16.8787 96.4905 16.6273 96.4905 16.246C96.4905 15.83 96.5858 15.3533 96.7765 14.816C96.9845 14.2787 97.1751 13.828 97.3485 13.464C97.3485 13.4467 97.3398 13.438 97.3225 13.438C97.3225 13.4207 97.3225 13.4033 97.3225 13.386C97.3225 13.2993 97.3485 13.23 97.4005 13.178C97.4698 13.126 97.5218 13.074 97.5565 13.022C97.6431 12.8833 97.7211 12.7447 97.7905 12.606C97.8598 12.4673 97.9291 12.3373 97.9985 12.216C98.2931 11.748 98.6485 11.2973 99.0645 10.864C99.4978 10.4307 99.9831 10.136 100.52 9.98C100.711 9.928 100.893 9.902 101.066 9.902C101.101 9.902 101.136 9.91067 101.17 9.928C101.222 9.928 101.248 9.94533 101.248 9.98C101.248 10.032 101.196 10.0927 101.092 10.162C101.006 10.2313 100.945 10.2833 100.91 10.318C100.633 10.5433 100.33 10.89 100 11.358C99.6885 11.826 99.4371 12.2073 99.2465 12.502C99.6451 12.4327 100.035 12.3807 100.416 12.346C100.815 12.3113 101.205 12.3113 101.586 12.346C101.777 12.0687 101.95 11.7307 102.106 11.332C102.28 10.916 102.366 10.5347 102.366 10.188C102.366 9.99733 102.34 9.88467 102.288 9.85C102.254 9.81533 102.158 9.798 102.002 9.798C101.968 9.798 101.916 9.78933 101.846 9.772C101.777 9.75467 101.742 9.72 101.742 9.668C101.742 9.59867 101.82 9.538 101.976 9.486C102.132 9.434 102.297 9.39933 102.47 9.382C102.644 9.34733 102.756 9.33 102.808 9.33C103.276 9.33 103.51 9.54667 103.51 9.98C103.51 10.2227 103.432 10.5173 103.276 10.864C103.138 11.1933 102.956 11.5053 102.73 11.8C102.522 12.0773 102.314 12.2767 102.106 12.398C102.158 12.398 102.262 12.424 102.418 12.476C102.592 12.5107 102.748 12.554 102.886 12.606C103.042 12.658 103.12 12.7187 103.12 12.788C103.12 12.84 103.068 12.8747 102.964 12.892C102.86 12.892 102.791 12.892 102.756 12.892C102.6 12.892 102.444 12.8833 102.288 12.866C102.132 12.8313 101.976 12.814 101.82 12.814C101.335 12.814 100.841 12.8487 100.338 12.918C99.8531 12.9873 99.3678 13.074 98.8825 13.178C98.7091 13.49 98.5098 13.8887 98.2845 14.374C98.0765 14.8593 97.9725 15.2927 97.9725 15.674C97.9725 16.2807 98.2845 16.584 98.9085 16.584C99.3591 16.584 99.7925 16.4627 100.208 16.22C100.642 15.9773 101.04 15.6913 101.404 15.362C101.768 15.0327 102.063 14.7467 102.288 14.504C102.514 14.2613 102.644 14.14 102.678 14.14C102.73 14.14 102.756 14.1747 102.756 14.244C102.756 14.452 102.635 14.7033 102.392 14.998C102.15 15.2753 101.95 15.4747 101.794 15.596C101.188 16.064 100.503 16.4453 99.7405 16.74C98.9951 17.0347 98.2238 17.182 97.4265 17.182ZM103.02 17.39C102.899 17.39 102.847 17.3467 102.864 17.26C103.315 16.4627 103.713 15.648 104.06 14.816C104.407 13.9667 104.745 13.1173 105.074 12.268L105.36 11.514C105.36 11.462 105.317 11.4447 105.23 11.462C105.143 11.4793 105.1 11.4533 105.1 11.384C105.1 11.3493 105.169 11.2193 105.308 10.994C105.447 10.7513 105.594 10.5087 105.75 10.266C105.906 10.006 106.001 9.85 106.036 9.798C106.105 9.694 106.261 9.59 106.504 9.486C106.747 9.382 106.929 9.33 107.05 9.33C107.241 9.33 107.336 9.408 107.336 9.564C107.336 9.616 107.327 9.668 107.31 9.72C107.293 9.772 107.275 9.81533 107.258 9.85C106.998 10.474 106.712 11.098 106.4 11.722C106.105 12.3287 105.863 12.9613 105.672 13.62C106.175 13.0133 106.721 12.424 107.31 11.852C107.917 11.2627 108.532 10.7253 109.156 10.24C109.329 10.1013 109.52 9.97133 109.728 9.85C109.953 9.72867 110.179 9.668 110.404 9.668C110.681 9.668 110.855 9.772 110.924 9.98C110.993 10.1707 111.028 10.37 111.028 10.578C111.028 10.8553 110.941 11.15 110.768 11.462C110.595 11.774 110.343 11.93 110.014 11.93C109.875 11.93 109.806 11.878 109.806 11.774C109.806 11.6873 109.815 11.618 109.832 11.566C109.849 11.4967 109.858 11.4273 109.858 11.358C109.858 11.2713 109.823 11.1673 109.754 11.046C109.685 10.9247 109.607 10.864 109.52 10.864C109.295 10.864 108.991 11.0027 108.61 11.28C108.229 11.5573 107.83 11.8953 107.414 12.294C107.015 12.6927 106.651 13.0827 106.322 13.464C106.01 13.828 105.785 14.0967 105.646 14.27C105.455 14.5473 105.291 14.8333 105.152 15.128C105.013 15.4053 104.901 15.6913 104.814 15.986C104.779 16.09 104.745 16.2027 104.71 16.324C104.675 16.428 104.641 16.5233 104.606 16.61C104.571 16.6967 104.441 16.8093 104.216 16.948C103.991 17.0693 103.757 17.1733 103.514 17.26C103.289 17.3467 103.124 17.39 103.02 17.39ZM106.715 25.684C106.247 25.684 105.762 25.5973 105.259 25.424C104.756 25.268 104.332 25.008 103.985 24.644C103.638 24.2973 103.465 23.8467 103.465 23.292C103.465 22.7893 103.612 22.33 103.907 21.914C104.184 21.498 104.548 21.1167 104.999 20.77C105.432 20.4407 105.892 20.146 106.377 19.886C106.862 19.626 107.296 19.418 107.677 19.262C108.648 18.8633 109.705 18.56 110.849 18.352C112.01 18.144 113.111 18.0053 114.151 17.936C114.463 17.1387 114.775 16.3413 115.087 15.544C115.416 14.7467 115.668 13.9233 115.841 13.074L115.945 12.58C115.72 12.8747 115.408 13.2733 115.009 13.776C114.628 14.2787 114.203 14.79 113.735 15.31C113.284 15.83 112.825 16.272 112.357 16.636C111.889 16.9827 111.473 17.156 111.109 17.156C110.814 17.156 110.615 17.0347 110.511 16.792C110.407 16.532 110.355 16.2807 110.355 16.038C110.355 15.3793 110.502 14.7553 110.797 14.166C111.092 13.5593 111.386 12.9787 111.681 12.424L111.603 12.45C111.499 12.45 111.447 12.398 111.447 12.294C111.447 12.2767 111.464 12.2333 111.499 12.164C111.724 11.748 111.915 11.3927 112.071 11.098C112.227 10.8033 112.435 10.578 112.695 10.422C112.955 10.266 113.354 10.188 113.891 10.188C113.995 10.188 114.047 10.2313 114.047 10.318C114.047 10.4567 113.952 10.6907 113.761 11.02C113.57 11.3493 113.362 11.6873 113.137 12.034C112.912 12.3633 112.756 12.5973 112.669 12.736C112.53 12.944 112.366 13.2473 112.175 13.646C111.984 14.0447 111.82 14.4433 111.681 14.842C111.542 15.2233 111.473 15.5353 111.473 15.778C111.473 15.8647 111.49 15.9513 111.525 16.038C111.56 16.1073 111.629 16.142 111.733 16.142C111.958 16.142 112.244 16.012 112.591 15.752C112.938 15.4747 113.302 15.128 113.683 14.712C114.064 14.296 114.437 13.8627 114.801 13.412C115.165 12.944 115.477 12.5193 115.737 12.138C116.014 11.7393 116.214 11.4273 116.335 11.202C116.474 10.9593 116.569 10.708 116.621 10.448C116.673 10.1707 116.838 9.94533 117.115 9.772C117.236 9.70267 117.392 9.63333 117.583 9.564C117.774 9.47733 117.93 9.434 118.051 9.434C118.224 9.434 118.311 9.52067 118.311 9.694C118.311 9.93667 118.224 10.188 118.051 10.448C117.895 10.6907 117.756 10.916 117.635 11.124C117.479 11.4187 117.332 11.774 117.193 12.19C117.072 12.5887 116.959 12.9613 116.855 13.308C116.578 14.0707 116.309 14.842 116.049 15.622C115.806 16.3847 115.512 17.1473 115.165 17.91H115.685C115.824 17.91 115.954 17.9187 116.075 17.936C116.214 17.9533 116.283 18.0053 116.283 18.092C116.283 18.1787 116.188 18.2307 115.997 18.248C115.824 18.2653 115.633 18.2653 115.425 18.248C115.234 18.248 115.104 18.248 115.035 18.248C114.688 19.08 114.246 19.9293 113.709 20.796C113.189 21.68 112.574 22.486 111.863 23.214C111.17 23.9593 110.398 24.5573 109.549 25.008C108.682 25.4587 107.738 25.684 106.715 25.684ZM106.611 25.138C107.46 25.138 108.266 24.904 109.029 24.436C109.774 23.9853 110.459 23.4047 111.083 22.694C111.724 21.9833 112.288 21.2293 112.773 20.432C113.276 19.652 113.683 18.9327 113.995 18.274C113.024 18.3433 111.984 18.4907 110.875 18.716C109.766 18.9587 108.778 19.3053 107.911 19.756C107.478 19.964 107.001 20.25 106.481 20.614C105.944 20.978 105.484 21.394 105.103 21.862C104.704 22.3473 104.505 22.8673 104.505 23.422C104.505 24.0113 104.73 24.4447 105.181 24.722C105.614 24.9993 106.091 25.138 106.611 25.138Z" fill="black"/>
</svg>
