<!DOCTYPE svg PUBLIC "-//W3C//DTD SVG 1.1//EN" "http://www.w3.org/Graphics/SVG/1.1/DTD/svg11.dtd">
<!-- Uploaded to: SVG Repo, www.svgrepo.com, Transformed by: SVG Repo Mixer Tools -->
<svg fill="#ffffff" version="1.1" id="Capa_1" xmlns="http://www.w3.org/2000/svg" xmlns:xlink="http://www.w3.org/1999/xlink" width="64px" height="64px" viewBox="0 0 583.404 583.404" xml:space="preserve" transform="rotate(90)matrix(1, 0, 0, 1, 0, 0)" stroke="#ffffff" stroke-width="5.83404">
<g id="SVGRepo_bgCarrier" stroke-width="0"/>
<g id="SVGRepo_tracerCarrier" stroke-linecap="round" stroke-linejoin="round" stroke="#CCCCCC" stroke-width="1.166808"/>
<g id="SVGRepo_iconCarrier"> <g> <g> <path d="M346.456,343.389c-1.047,0.971-2.083,2.006-3.069,3.068c-0.354,0.369-9.763,10.096-26.698,19.477 c-21.24,11.766-44.383,17.73-68.786,17.73c-1.023,0-2.052-0.01-3.084-0.031L192.6,331.414 c-11.096-11.098-25.849-17.207-41.541-17.207c-15.691,0-30.444,6.109-41.541,17.205l-91.819,91.82 c-22.905,22.906-22.905,60.176-0.001,83.082l38.25,38.25c14.452,14.451,35.432,23.137,50.487,27.879 c21.726,6.844,46.783,10.461,72.461,10.461c19.893,0,40.33-2.127,60.743-6.32c22.587-4.641,45.35-11.865,67.657-21.469 c50.813-21.879,99.837-56.232,145.709-102.104c40.233-40.232,71.712-83.039,93.56-127.23 c18.91-38.249,30.583-77.335,34.692-116.175c3.403-32.166,1.444-63.992-5.666-92.04c-3.183-12.554-7.31-24.07-12.266-34.228 c-5.444-11.161-11.759-20.375-18.769-27.384l-38.249-38.249C495.212,6.611,480.458,0.5,464.767,0.5s-30.445,6.111-41.541,17.207 l-91.818,91.819c-22.905,22.905-22.905,60.175-0.001,83.081l52.222,52.222c0.505,24.132-4.798,47.08-15.81,68.342 C357.931,332.258,346.915,342.949,346.456,343.389z M361.699,139.817l91.819-91.819c3.106-3.106,7.178-4.659,11.248-4.659 c4.071,0,8.143,1.553,11.249,4.659l38.249,38.25c27.707,27.707,67.851,177.068-91.552,336.471 c-91.669,91.668-180.017,117.346-243.816,117.346c-47.143,0-80.883-14.02-92.656-25.793l-38.25-38.25 c-6.212-6.213-6.212-16.285,0-22.498l91.819-91.818c3.106-3.105,7.177-4.66,11.248-4.66c4.071,0,8.142,1.555,11.249,4.66 l59.519,59.52c2.669,2.668,6.205,4.299,9.967,4.609c5.516,0.455,10.878,0.67,16.11,0.67c76.937,0,122.701-46.385,126.877-50.898 c0.264-0.285,0.534-0.555,0.819-0.818c4.82-4.461,57.393-56.342,50.229-142.987c-0.312-3.763-1.941-7.298-4.611-9.968 l-59.519-59.519C355.487,156.102,355.487,146.03,361.699,139.817z"/> <path d="M178.896,583.404c-25.729,0-50.838-3.625-72.612-10.484c-15.109-4.759-36.168-13.48-50.69-28.002l-38.25-38.25 c-23.098-23.101-23.098-60.688,0.001-83.789l91.819-91.82c11.19-11.189,26.068-17.352,41.894-17.352 c15.827,0,30.706,6.163,41.895,17.354l52.077,52.076c0.961,0.019,1.919,0.027,2.873,0.027c24.318,0,47.379-5.944,68.543-17.668 c16.88-9.35,26.191-18.979,26.579-19.385c0.987-1.063,2.029-2.105,3.091-3.089c0.454-0.436,11.374-11.001,21.258-30.083 c10.926-21.095,16.228-43.94,15.758-67.9l-52.079-52.08c-23.1-23.101-23.1-60.688,0.001-83.788l91.818-91.819 C434.062,6.163,448.94,0,464.767,0s30.704,6.163,41.895,17.353l38.249,38.249c7.048,7.047,13.395,16.306,18.864,27.518 c4.972,10.188,9.11,21.736,12.301,34.324c7.125,28.104,9.089,59.991,5.679,92.215c-4.115,38.896-15.804,78.04-34.741,116.344 c-21.871,44.239-53.382,87.091-93.654,127.362c-45.919,45.918-94.994,80.306-145.864,102.209 c-22.345,9.62-45.141,16.854-67.754,21.5C219.291,581.274,198.82,583.404,178.896,583.404z M151.059,314.707 c-15.559,0-30.186,6.059-41.187,17.059l-91.819,91.82c-22.709,22.711-22.709,59.664-0.001,82.375l38.25,38.25 c14.379,14.379,35.281,23.03,50.284,27.756c21.678,6.828,46.683,10.438,72.311,10.438c19.857,0,40.26-2.123,60.643-6.311 c22.547-4.632,45.277-11.845,67.56-21.438c50.753-21.854,99.724-56.17,145.553-101.998 c40.195-40.194,71.642-82.957,93.465-127.099c18.885-38.197,30.54-77.228,34.644-116.006c3.397-32.108,1.442-63.874-5.653-91.864 c-3.175-12.521-7.289-24.004-12.23-34.131c-5.421-11.113-11.703-20.281-18.673-27.25L505.954,18.06 C494.953,7.059,480.325,1,464.767,1s-30.187,6.059-41.188,17.06l-91.818,91.819c-22.71,22.71-22.711,59.663-0.001,82.374 l52.364,52.364l0.004,0.201c0.506,24.203-4.832,47.278-15.865,68.582c-9.96,19.229-20.996,29.905-21.461,30.351 c-1.049,0.973-2.073,1.996-3.049,3.047c-0.397,0.416-9.812,10.151-26.822,19.574c-21.314,11.807-44.539,17.793-69.028,17.793 c-1.027,0-2.059-0.01-3.095-0.031l-0.201-0.004l-0.142-0.143l-52.219-52.219C181.246,320.766,166.619,314.707,151.059,314.707z M178.897,540.564c-46.083,0-80.517-13.446-93.009-25.939l-38.25-38.25c-6.397-6.397-6.397-16.808,0-23.205l91.819-91.818 c3.1-3.1,7.22-4.807,11.602-4.807s8.501,1.707,11.602,4.807l59.519,59.52c2.58,2.578,6.008,4.164,9.655,4.465 c5.375,0.443,10.781,0.668,16.069,0.668c78.656,0,124.593-48.666,126.51-50.738c0.272-0.294,0.553-0.573,0.847-0.846 c2.347-2.171,57.378-54.193,50.07-142.579c-0.302-3.648-1.889-7.078-4.467-9.656l-59.519-59.519 c-6.396-6.397-6.396-16.806,0.001-23.203l91.819-91.819c3.1-3.099,7.22-4.806,11.602-4.806c4.383,0,8.503,1.707,11.603,4.806 l38.249,38.25c16.287,16.287,30.421,63.619,24.534,119.256c-5.498,51.955-30.101,131.937-116.086,217.922 c-42.063,42.063-86.647,73.404-132.515,93.154C253.045,532.376,215.479,540.564,178.897,540.564z M151.059,357.545 c-4.114,0-7.983,1.603-10.895,4.514l-91.819,91.818c-6.007,6.008-6.007,15.783,0,21.791l38.25,38.25 c12.352,12.353,46.504,25.646,92.302,25.646c36.445,0,73.878-8.161,111.259-24.257c45.75-19.699,90.229-50.97,132.203-92.942 c85.779-85.779,110.317-165.526,115.798-217.321c6.566-62.057-11.387-105.584-24.246-118.443l-38.249-38.25 c-2.91-2.91-6.78-4.513-10.896-4.513s-7.984,1.603-10.895,4.513l-91.819,91.819c-6.007,6.007-6.008,15.782-0.001,21.789 l59.519,59.519c2.745,2.746,4.435,6.396,4.756,10.28c7.348,88.865-48.026,141.21-50.387,143.396 c-0.276,0.255-0.537,0.515-0.792,0.791c-1.93,2.085-48.157,51.059-127.245,51.059c-5.315,0-10.749-0.226-16.151-0.672 c-3.882-0.32-7.533-2.009-10.28-4.754l-59.519-59.52C159.042,359.147,155.173,357.545,151.059,357.545z"/> </g> </g> </g>
</svg>