<!DOCTYPE svg PUBLIC "-//W3C//DTD SVG 1.1//EN" "http://www.w3.org/Graphics/SVG/1.1/DTD/svg11.dtd">
<!-- Uploaded to: SVG Repo, www.svgrepo.com, Transformed by: SVG Repo Mixer Tools -->
<svg height="64px" width="64px" version="1.1" id="Capa_1" xmlns="http://www.w3.org/2000/svg" xmlns:xlink="http://www.w3.org/1999/xlink" viewBox="0 0 60.14 60.14" xml:space="preserve" fill="#9ca3af">
<g id="SVGRepo_bgCarrier" stroke-width="0"/>
<g id="SVGRepo_tracerCarrier" stroke-linecap="round" stroke-linejoin="round"/>
<g id="SVGRepo_iconCarrier"> <g> <g> <path style="fill:#9ca3af;" d="M43.84,52.722c-2.318-0.75-4.64-1.5-6.957-2.25c-0.942-0.305-1.886-0.606-2.826-0.914 c1.506,0.486-0.406-0.914-0.84-1.562c-0.447-0.673-0.754-1.398-0.99-2.153c0.304-0.622,0.381-1.382,0.232-2.11 c0-0.051,0.004-0.101,0.002-0.151c-0.082-3.806,0.084-9.353,3.223-11.953c1.902-1.579,1.592-4.807-0.034-6.412 c-1-0.987-2.206-1.356-3.404-1.255c-3.372-2.606-6.834-5.09-10.371-7.473L25.56,6.291h-0.5h-0.4 c0.14-0.225,0.224-0.489,0.224-0.773c0-0.814-0.659-1.473-1.473-1.473s-1.474,0.659-1.474,1.473c0,0.285,0.085,0.548,0.225,0.773 h-3.19H18.69h-0.175c0.022-0.08,0.038-0.164,0.038-0.251c0-0.521-0.423-0.944-0.945-0.944c-0.521,0-0.944,0.423-0.944,0.944 c0,0.087,0.017,0.171,0.038,0.251h-1.683h-0.197H14.2l3.539,10.427c-1.043,1.299-1.189,3.458,0.605,4.661l-1.374,2.925l3.799-1.27 c2.142,1.477,4.252,2.997,6.329,4.564c-0.011,0.015-0.023,0.03-0.035,0.045l0.305,0.158c0.417,0.316,0.836,0.631,1.25,0.951 l-3.721,4.022l0.788-2.74c-1.52,3.275-2.123,7.179-2.265,10.738c-1.417-0.032-2.834-0.045-4.254-0.047 c-1.221,0-2.72,0.912-2.915,2.217c-0.847,5.693,0.742,11.084,3.932,15.826c2.162,3.215,7.399,0.193,5.219-3.049 c-1.774-2.64-3.254-5.72-3.425-8.934c0.993,0.014,1.983,0.039,2.974,0.076c0.456,0.373,0.983,0.646,1.544,0.822 c1.172,3.562,3.422,6.883,7.078,8.063c2.888,0.933,5.772,1.865,8.661,2.798C45.952,59.749,47.533,53.912,43.84,52.722z M25.256,39.624c-0.334,0-0.604-0.541-0.604-1.21c0-0.667,0.27-1.209,0.604-1.209s0.604,0.542,0.604,1.209 C25.86,39.083,25.59,39.624,25.256,39.624z M25.558,36.904c-0.333,0-0.604-0.541-0.604-1.21c0-0.668,0.27-1.209,0.604-1.209 s0.605,0.541,0.605,1.209C26.163,36.363,25.892,36.904,25.558,36.904z"/> <path style="fill:#9ca3af;" d="M33.261,16.53c1.287,0.757,5.559,3.283,6.252,3.687c0.693,0.403-1.43,1.766-1.495,3.231 c-0.089,2.011,1.053,0.621,1.053,0.621l0.651-1.105c1.439-2.441,2.617-4.414,0.258-5.806l-1.46-0.862c0,0-1.729-0.651-3.399-5.246 c-1.178,1.382-0.092,3.186-0.092,3.186s-1.325-1.946-1.893-1.791C33.136,12.445,31.98,15.771,33.261,16.53z"/> <circle style="fill:#9ca3af;" cx="15.333" cy="4.57" r="1.133"/> <circle style="fill:#9ca3af;" cx="20.005" cy="4.57" r="1.468"/> <circle style="fill:#9ca3af;" cx="22.466" cy="2.493" r="0.944"/> <circle style="fill:#9ca3af;" cx="20.822" cy="0.944" r="0.944"/> <circle style="fill:#9ca3af;" cx="17.608" cy="1.549" r="1.549"/> </g> </g> </g>
</svg>