<svg width="89" height="91" viewBox="0 0 89 91" fill="none" xmlns="http://www.w3.org/2000/svg">
<path d="M39.4695 0.856364C38.7568 1.38534 38.4159 3.96798 38.9737 4.65254C39.5625 5.36821 41.3598 5.24375 41.7937 4.46584C42.2585 3.56347 41.7007 2.31883 40.802 2.31883C40.1513 2.31883 40.1513 2.34994 40.6161 2.87892C41.3598 3.68794 41.2978 4.80812 40.5541 4.80812C39.3766 4.80812 39.4076 1.13641 40.5851 0.669667C40.864 0.545202 40.864 0.48297 40.4922 0.48297C40.2442 0.451854 39.7794 0.638551 39.4695 0.856364Z" fill="#FFFEFE"/>
<path d="M42.8473 0.76302C42.7233 0.949717 42.7233 1.19865 42.8163 1.292C42.9092 1.41646 43.0022 1.32311 43.0022 1.13641C43.0022 0.576323 44.2417 0.700788 44.4586 1.22976C44.5516 1.50981 44.3967 1.8832 44.0868 2.13213C43.622 2.47441 43.622 2.53664 44.0558 2.91004C44.7685 3.50125 44.6756 4.06134 43.7459 4.77701C43.0332 5.3371 43.0022 5.43045 43.529 5.43045C44.7995 5.43045 45.1404 4.77701 45.0784 2.62999L45.0164 0.607439L44.0248 0.51409C43.498 0.451858 42.9712 0.576323 42.8473 0.76302Z" fill="#FFFEFE"/>
<path d="M46.4109 1.19865C46.4109 1.54093 46.6898 1.69651 47.4335 1.69651C48.642 1.69651 48.9829 1.91432 48.5491 2.4433C48.1152 2.97227 46.7208 5.11929 46.7208 5.27487C46.7208 5.36822 46.8447 5.43045 46.9997 5.43045C47.3405 5.43045 49.6027 1.38534 49.3858 1.13641C49.2928 1.04307 48.5801 0.918601 47.8054 0.856369C46.6898 0.731904 46.4109 0.794136 46.4109 1.19865Z" fill="#FFFEFE"/>
<path d="M35.8749 1.4787C35.8749 1.54093 36.0918 2.06991 36.3707 2.59888C36.7116 3.28344 36.8355 4.06134 36.7116 4.90148C36.5566 6.0839 36.5876 6.14613 36.9905 5.61715C37.6102 4.71478 37.5482 2.53665 36.8665 1.91433C36.3397 1.41647 35.8749 1.22977 35.8749 1.4787Z" fill="#FFFEFE"/>
<path d="M33.2099 2.28769C33.9226 3.0656 34.2015 5.11927 33.7367 6.08387C33.3958 6.76843 33.4268 6.76843 34.1395 5.95941C35.0072 5.02592 35.1621 3.93685 34.6043 2.84778C34.1705 2.06988 33.7367 1.69649 33.1169 1.69649C32.776 1.69649 32.807 1.82095 33.2099 2.28769Z" fill="#FFFEFE"/>
<path d="M31.5985 2.38104C31.3816 2.59886 31.2267 2.97225 31.2267 3.2523C31.2267 3.8435 32.1563 4.80811 32.7141 4.80811C33.1789 4.80811 33.2099 4.27913 32.7451 4.12355C32.5282 4.06132 32.3732 3.56346 32.3423 3.00337C32.3113 1.9143 32.1563 1.82095 31.5985 2.38104Z" fill="#FFFEFE"/>
<path d="M53.3212 2.78558C52.4845 3.37679 51.8957 5.30599 52.2986 6.0839C52.7324 6.8618 53.786 7.11073 54.6537 6.64399C55.4594 6.23948 55.6453 5.18153 55.0255 4.5592C54.4368 3.96799 54.1269 4.12358 54.3128 4.87036C54.5297 5.7105 53.786 6.8618 53.2902 6.55064C52.4535 6.05278 53.2282 3.71906 54.5297 2.81669C55.1805 2.34995 55.1805 2.31884 54.5917 2.31884C54.2508 2.31884 53.693 2.53665 53.3212 2.78558Z" fill="#FFFEFE"/>
<path d="M27.694 3.71906C26.9503 4.46585 27.6011 6.36394 28.6237 6.36394C29.1815 6.36394 29.1815 5.92831 28.5927 5.43046C27.9729 4.90148 27.9729 3.56348 28.5927 3.56348C29.3054 3.56348 30.2661 6.02166 29.9252 6.95515C29.5533 8.0131 29.8322 8.10645 30.452 7.17296C31.1027 6.17724 30.8858 4.24804 30.0801 3.65683C29.3674 3.12786 28.2828 3.15897 27.694 3.71906Z" fill="#FFFEFE"/>
<path d="M49.6026 3.78127C49.8815 4.24801 51.0281 4.49694 51.245 4.15466C51.338 3.99908 51.214 3.87462 50.9351 3.87462C50.6872 3.87462 50.2534 3.78127 49.9435 3.6568C49.6026 3.53234 49.4787 3.56345 49.6026 3.78127Z" fill="#FFFEFE"/>
<path d="M56.9778 4.71475C56.6679 5.39931 56.6679 5.58601 57.0708 5.80382C58.0624 6.36391 57.5356 7.67079 56.1721 8.01307C55.8003 8.10642 55.9862 8.16865 56.637 8.19977C57.9385 8.23088 58.3413 7.98196 58.6202 7.07959C58.8061 6.55061 58.6512 6.17722 57.9694 5.55489L57.1018 4.71475L58.2793 4.93257C59.5188 5.15038 59.8597 4.74587 58.8371 4.18578C57.8765 3.68792 57.3807 3.81238 56.9778 4.71475Z" fill="#FFFEFE"/>
<path d="M23.8824 5.36822C23.5106 5.61715 23.3246 6.33282 23.4176 7.35965C23.4796 8.01309 24.5332 8.35537 25.2459 7.95086C25.7727 7.6397 25.7727 7.6397 25.2769 7.60858C24.3473 7.60858 23.6035 5.43045 24.5022 5.43045C25.2769 5.43045 26.0206 6.64398 26.2065 8.10644C26.3305 9.44444 26.3925 9.50667 26.7643 9.00881C27.3531 8.19979 27.2911 7.32854 26.5784 6.11501C25.9586 5.11929 24.7811 4.77701 23.8824 5.36822Z" fill="#FFFEFE"/>
<path d="M21.3104 8.10645C21.3104 8.94659 21.5273 9.44445 22.2711 10.129C22.7979 10.6269 23.5106 11.0314 23.8205 11.0314C24.2853 11.0314 24.1613 10.7824 23.1697 9.75561C22.426 8.9777 21.9302 8.16868 21.9302 7.73305C21.9302 7.32854 21.8062 6.98627 21.6203 6.98627C21.4654 6.98627 21.3104 7.48412 21.3104 8.10645Z" fill="#FFFEFE"/>
<path d="M62.5557 7.8886C61.843 8.57316 61.5951 9.07102 61.5951 9.88004C61.5951 10.5024 61.719 11.0936 61.905 11.1869C62.0599 11.2803 62.1219 11.1869 62.0289 10.9069C61.781 10.2845 62.6797 8.63539 63.6093 8.04418C64.0432 7.76414 64.2911 7.42186 64.1981 7.26628C63.9192 6.79953 63.5783 6.95511 62.5557 7.8886Z" fill="#FFFEFE"/>
<path d="M59.8907 7.91972C60.7274 8.29312 61.2232 8.29312 60.6654 7.91972C60.4175 7.76414 59.9837 7.63968 59.7358 7.63968C59.4259 7.63968 59.4879 7.73303 59.8907 7.91972Z" fill="#FFFEFE"/>
<path d="M64.8178 7.85751C65.1277 8.35537 64.5389 9.60002 63.4543 10.658C62.5557 11.5603 62.5247 11.6537 63.1445 11.6537C64.1671 11.6537 65.3136 10.2846 65.3136 9.03993C65.3136 8.44872 65.1587 7.85751 64.9418 7.73304C64.7558 7.60858 64.6939 7.6397 64.8178 7.85751Z" fill="#FFFEFE"/>
<path d="M18.3046 9.47554C17.313 10.3779 17.0031 11.0313 17.5299 11.0313C17.6848 11.0313 18.0567 10.7513 18.3666 10.409C19.2652 9.41331 19.6991 9.66224 20.1019 11.4981C20.3188 12.4938 20.6287 13.1784 20.8146 13.1161C21.2175 12.9606 21.2175 13.0228 20.3188 10.4713C19.916 9.41331 19.5441 8.54205 19.4512 8.54205C19.3582 8.54205 18.8314 8.97768 18.3046 9.47554Z" fill="#FFFEFE"/>
<path d="M35.596 9.81783C33.4578 10.1912 28.9335 11.5603 27.5081 12.3071C26.9193 12.6183 26.0826 13.0228 25.6488 13.1784C25.215 13.3651 24.5952 13.7074 24.2543 13.894C21.5893 15.6054 20.1329 16.5389 19.6371 16.9434C17.9018 18.3437 12.9127 23.5401 12.014 24.8781C10.5266 27.1184 8.01653 32.0348 7.52072 33.5906L7.11787 34.9597L8.32641 35.4265C9.87582 36.0488 12.3239 36.0799 12.3239 35.4887C12.3239 35.2709 12.5098 34.8975 12.7577 34.7108C13.3155 34.244 16.5073 34.773 18.4285 35.6443C19.978 36.3599 20.0709 36.3599 20.0709 35.7687C20.0709 35.2709 20.8456 35.1153 21.1555 35.582C21.2485 35.7376 22.2711 36.0799 23.4176 36.3599C25.7418 36.8889 28.6237 37.978 29.3984 38.6314C30.5759 39.6272 31.0097 38.7248 30.5449 36.2355C30.39 35.3331 30.328 34.5552 30.421 34.4619C30.6689 34.2129 31.2267 36.6089 31.2267 37.978C31.2267 39.3782 30.7928 40.125 29.7702 40.4362C29.1814 40.5918 29.0575 40.4984 29.0575 39.9072C29.0575 39.5027 28.7166 38.9737 28.3448 38.6625C27.694 38.1958 27.1052 38.0091 23.8515 37.169C23.2937 37.0134 22.2711 36.9512 21.5893 37.0134C20.9076 37.1067 20.1019 37.0134 19.823 36.8578C18.7694 36.2666 15.0199 34.9908 14.2761 34.9908C13.8113 34.9908 13.4395 35.2398 13.2845 35.6754C12.9127 36.6711 13.3775 37.3557 14.648 37.8224C15.2368 38.0402 15.7946 38.4136 15.8875 38.6625C16.0425 39.0982 15.3607 40.6229 14.4621 41.8053C14.0282 42.3343 13.8733 43.0499 13.8733 44.3879C13.8733 47.9352 15.0508 48.4019 17.6848 45.8815C19.5441 44.1079 20.5667 43.8278 20.2569 45.1658C20.1329 45.6637 19.978 46.6283 19.854 47.344C19.6681 48.8064 19.1413 48.8687 19.1413 47.4062C19.1413 46.9083 19.0483 46.5038 18.9553 46.5038C18.8624 46.5038 18.1497 46.9083 17.375 47.4373C15.2058 48.8998 14.2142 48.5886 13.4085 46.1927C12.9436 44.7613 12.9436 44.5124 13.3775 42.9566C13.6564 42.0231 13.8733 41.2141 13.8733 41.1518C13.8733 40.8718 7.08688 36.8578 6.62206 36.8578C6.40514 36.8578 5.87834 39.8138 5.4755 43.2989C5.1966 45.9126 5.22759 47.1573 5.63044 50.4556C6.06427 53.9406 7.70664 60.3194 8.29542 60.8173C8.38838 60.9106 8.72925 61.5952 9.07012 62.3731C9.9068 64.3957 12.138 67.8184 13.9663 69.9966C15.9495 72.3303 18.8004 75.0685 19.5441 75.2863C19.823 75.4108 20.0709 75.5975 20.0709 75.7531C20.0709 76.0953 25.3389 79.207 27.663 80.2338C35.0382 83.4388 43.7149 84.03 51.9887 81.8207C54.4058 81.1673 58.2173 79.6426 59.7977 78.6469C60.4485 78.2424 61.0373 77.9312 61.1302 77.9312C61.2232 77.9312 62.4008 77.1533 63.7023 76.1887C66.4292 74.1661 69.9929 70.7434 69.7449 70.37C69.559 70.0899 68.3195 70.3077 66.1503 70.9923C64.8798 71.3968 64.477 71.3968 63.2684 71.0234C62.4627 70.8056 61.719 70.3388 61.5331 69.9966C61.3472 69.6543 60.9443 69.0942 60.6344 68.7519C60.2006 68.2541 60.0147 67.4762 59.9217 65.3914C59.7668 62.342 59.24 61.0973 58.1244 61.2218C57.5976 61.284 57.4117 61.0662 57.2257 60.2572C57.0398 59.3237 57.0708 59.2615 57.6906 59.4482C58.0314 59.5415 58.7441 59.9149 59.209 60.2572C59.7048 60.5995 60.1696 60.7862 60.2626 60.7239C60.3245 60.6306 60.0457 60.3194 59.6118 60.0394C59.178 59.7282 58.8681 59.3859 58.9611 59.2615C59.054 59.1059 58.8061 58.7636 58.4343 58.5147L57.7525 58.0168H58.5892C59.023 58.0168 60.3555 58.3902 61.5021 58.8259C63.2374 59.5104 64.2291 59.6971 66.987 59.7593C70.2098 59.8527 70.3957 59.8838 71.2634 60.7239C71.7902 61.1907 72.5339 62.2486 72.9367 63.0577C73.7734 64.7068 74.1453 64.8935 74.4861 63.8356C74.5791 63.4622 74.858 62.9332 75.0749 62.6843C75.9736 61.5641 75.8496 61.2218 74.2072 60.3505C71.7282 59.0437 69.4351 58.5458 67.9166 58.9192C66.8321 59.1992 66.2123 59.137 64.0431 58.4525C62.6177 58.0168 61.0373 57.4879 60.5415 57.27L59.6118 56.8655L61.0683 56.5233C61.874 56.3054 62.5247 56.0876 62.5247 56.0565C62.5247 55.9943 61.75 55.9943 60.8204 56.0876C59.8907 56.1499 59.116 56.1499 59.116 56.0254C59.116 55.932 59.5808 55.6209 60.1386 55.3408C62.2148 54.2829 68.9393 49.5532 70.7366 47.9041C71.7592 46.9706 72.8438 46.1927 73.2156 46.1927C73.5875 46.1927 74.4551 46.4727 75.1679 46.815C75.8496 47.1573 76.6553 47.4373 76.9032 47.4373C77.1511 47.4373 77.461 47.5618 77.554 47.7485C77.6469 47.9041 78.0498 48.2152 78.3906 48.4019C79.0414 48.7442 79.0414 48.7442 78.8555 44.6057C78.6385 38.9426 76.9652 32.7194 74.7031 29.0165C74.3002 28.3631 73.9903 27.7719 73.9903 27.7096C73.9903 27.3985 71.9761 24.5047 70.6126 22.8555C65.0967 16.1033 56.2651 10.938 48.3011 9.78671C45.7911 9.41331 37.8891 9.44443 35.596 9.81783ZM34.1705 24.4424C36.6186 25.7182 37.5792 27.803 36.0298 28.5187C35.627 28.7054 35.1312 29.2655 34.9762 29.7633C34.6973 30.5412 34.7593 30.7901 35.3791 31.4436L36.0918 32.2215L38.7878 31.7548C41.2978 31.3191 44.6445 29.8567 44.9234 29.1099C44.9854 28.9543 46.5038 28.1142 48.3321 27.2429C51.369 25.7804 51.8028 25.656 53.7551 25.6871L55.8622 25.7493L53.7551 25.9983C52.5775 26.1227 51.4 26.4339 51.1211 26.6828C50.8112 26.9317 49.7576 27.4918 48.735 27.9586C46.2249 29.1099 43.8698 30.3234 43.312 30.7901C42.7543 31.2569 40.678 31.9726 38.3539 32.5015C37.4243 32.6882 36.1848 32.9683 35.658 33.1239C35.0692 33.2794 34.6354 33.2483 34.6354 33.0927C34.6354 32.9372 34.8523 32.8127 35.1002 32.8127C35.7199 32.8127 35.689 32.4393 35.0072 31.5369C34.6663 31.1324 34.3255 30.3545 34.2325 29.8255C34.0466 28.9232 34.1395 28.8298 34.9452 28.6431C36.5876 28.332 35.9369 26.3405 33.8297 25.2826C32.0014 24.3491 31.0407 24.3491 30.0181 25.3137C28.3757 26.8384 28.4687 29.0476 30.1421 28.6431C30.8238 28.4564 32.1563 29.2966 32.1563 29.8878C32.1563 30.0122 32.0014 29.9811 31.8154 29.7944C31.5985 29.5766 31.0717 29.5144 30.6069 29.6077C29.9561 29.7322 29.5223 29.5455 28.7166 28.8298L27.663 27.8963L28.5927 26.1227C29.1195 25.1581 29.8012 24.2246 30.1421 24.1002C31.2267 23.6334 32.9 23.7579 34.1705 24.4424ZM18.0257 26.1227C18.2736 26.3716 18.5525 26.5895 18.6765 26.5895C18.7694 26.5895 19.7301 26.994 20.7836 27.4918C24.2853 29.1099 25.7727 29.6388 28.1278 30.0122C29.3984 30.2301 30.6689 30.5101 30.9478 30.6657C31.2576 30.8213 31.5675 30.7901 31.7844 30.5723C32.0014 30.3545 32.2183 30.2923 32.3112 30.3856C32.4042 30.479 32.2803 30.759 32.0324 31.0391C31.6295 31.4125 31.2576 31.4436 29.1505 31.0702C26.5165 30.6346 23.8825 29.8255 23.1697 29.2343C22.9218 29.0165 22.364 28.7365 21.9302 28.612C21.4964 28.4875 20.1949 27.8963 18.9863 27.3362C16.9411 26.3094 16.7242 26.2783 14.4931 26.465C12.8817 26.5895 12.2619 26.5583 12.4788 26.3405C13.1915 25.5937 17.313 25.4382 18.0257 26.1227ZM57.1018 27.0562C56.606 27.3051 55.3045 27.4918 54.2199 27.5229C51.9577 27.5229 50.5943 28.1142 48.735 29.9189C46.07 32.4704 44.9544 33.0616 39.9963 34.5863C38.6018 34.9908 38.3539 35.2086 38.3539 35.831C38.3539 36.4844 37.4863 37.7291 34.6354 41.1518C33.7987 42.1476 33.8607 42.9566 34.7903 43.5789C35.2551 43.8901 35.689 44.5746 35.8749 45.3836C36.7426 48.7753 38.5399 52.7271 40.4301 55.372C41.1739 56.3677 41.7626 57.3945 41.7626 57.6123C41.7626 58.1102 41.0189 58.1413 40.1822 57.6746C38.8807 56.99 38.9737 57.6123 40.3682 59.0437C41.6387 60.3194 41.7626 60.5684 41.4218 61.004C41.0809 61.4085 40.6161 61.4707 39.0667 61.3463C36.6186 61.1596 34.6973 60.2261 32.838 58.2969C32.0324 57.4567 31.2886 56.7722 31.1647 56.7722C31.0407 56.7722 31.0097 58.9192 31.0407 61.5018C31.1027 65.018 31.2886 66.636 31.6605 67.6629C32.7141 70.4633 33.3339 73.7927 33.055 75.193C32.931 75.9398 32.8071 76.6243 32.7761 76.7488C32.7761 76.9044 32.6521 76.9977 32.4972 76.9977C32.2493 76.9977 31.4436 75.0063 31.1027 73.5438C31.0097 73.1082 30.5759 72.3614 30.1421 71.8947C29.2744 70.9612 29.2124 70.5878 29.6773 69.3742C30.0181 68.4719 29.7082 67.694 27.756 64.2401C26.8263 62.6531 25.9897 58.9814 25.9587 56.5233C25.9587 55.3408 26.4855 55.7765 27.2292 57.5812C27.725 58.7636 28.1898 59.4171 28.7166 59.6349C29.6153 59.9771 29.8632 59.666 30.1111 57.8924C30.5139 55.3097 31.3506 55.2475 33.055 57.6434C34.5114 59.6971 35.9678 60.5684 38.137 60.7551C40.4611 60.9418 40.9569 60.5372 39.8414 59.3548C38.7568 58.1724 37.3313 55.8387 37.5792 55.5898C37.6722 55.4964 38.168 55.652 38.6328 55.932C39.8104 56.6166 40.1822 56.5855 39.9963 55.8387C39.9033 55.4964 39.7174 55.2164 39.5625 55.2164C39.4385 55.2164 38.7258 54.0028 38.0441 52.4781C37.3313 50.9846 36.5566 49.3354 36.3087 48.8375C36.0608 48.3086 35.7819 47.4062 35.689 46.815C35.4101 45.2592 34.7593 44.3879 33.7367 44.1079L32.8071 43.859L33.4578 42.4587C33.7987 41.6808 34.3255 40.7785 34.6044 40.4362C35.658 39.2226 37.1144 36.2666 36.7735 36.0488C36.3397 35.7999 37.6722 34.3685 38.3229 34.3685C39.5625 34.3685 43.6839 32.6571 45.6362 31.3191C47.8983 29.7944 50.2844 28.083 51.0591 27.4607C51.307 27.2429 52.7015 26.994 54.1579 26.8695C58.1864 26.5895 58.1554 26.5895 57.1018 27.0562ZM65.4686 32.9994C69.3421 34.2129 71.9141 36.64 72.6888 39.7205C73.2156 41.7742 73.1536 42.6143 72.4409 44.0457C71.1704 46.5038 67.7927 49.4288 62.2148 52.9138C58.6822 55.123 58.5892 55.0608 61.2852 52.2292C62.7416 50.7045 64.5699 48.7753 65.3136 47.9352C66.0883 47.095 67.2349 45.8504 67.8857 45.197C68.5054 44.5435 68.9393 44.0145 68.8153 44.0145C68.5674 44.0145 66.894 45.5392 62.5247 49.7399C59.3019 52.8515 56.6679 55.0297 56.451 54.8119C56.3581 54.7185 56.637 54.0028 57.1018 53.1938C57.5666 52.4159 57.8765 51.6691 57.7525 51.5758C57.6596 51.4513 57.5666 51.5135 57.5666 51.6691C57.5666 51.8558 57.0708 52.5093 56.482 53.1316L55.3974 54.2829V53.2872C55.4284 52.7271 55.7073 51.7625 56.0172 51.1713C57.8455 47.8418 58.3103 46.5661 58.4343 44.7924C58.5892 42.5832 57.7525 40.1561 56.2961 38.507C55.8003 37.9158 55.3974 37.2312 55.3974 36.9823C55.3974 35.7687 57.0088 33.9018 58.9611 32.8438C60.4485 32.0348 62.5557 32.097 65.4686 32.9994ZM50.2844 36.111C51.276 36.3599 52.3296 36.7645 52.6085 37.0134C52.8874 37.2623 53.2592 37.4801 53.4452 37.4801C54.1269 37.4801 56.637 40.654 56.9778 41.9298C57.5356 44.0457 57.1947 47.0639 56.1411 48.8687C55.6763 49.7088 55.1495 50.4867 54.9946 50.5801C54.8706 50.6734 54.5607 51.358 54.3438 52.1047L53.941 53.4739L53.0733 52.2292C52.6085 51.5758 52.3296 51.2957 52.4536 51.638C53.1043 53.4739 53.0733 53.5361 52.0507 52.6648C50.3464 51.2335 47.8053 51.1401 45.2953 52.447L44.0867 53.0382L43.2501 52.0425C40.678 48.962 39.8414 44.668 41.1739 41.4941C41.9796 39.5649 44.2107 36.7333 45.6052 35.8932C46.6278 35.2709 46.8757 35.2709 50.2844 36.111ZM20.5977 51.2335C21.2485 51.9803 21.4654 51.9492 21.8682 51.0157C22.488 49.6466 22.7669 50.1755 22.9218 52.9449C23.0768 55.9009 23.7895 57.9857 24.7811 58.2658C25.4009 58.4213 25.5248 58.7947 24.998 59.1059C24.0374 59.7282 22.55 56.461 22.55 53.785C22.55 52.3226 22.1471 51.7936 21.6513 52.6337C21.3724 53.1627 21.3414 53.1627 20.7217 52.6026C20.3498 52.2603 19.947 51.5135 19.761 50.8912C19.3582 49.491 19.3892 48.8998 19.792 49.9266C19.978 50.3311 20.3188 50.9535 20.5977 51.2335ZM50.9351 53.1938C51.8958 53.7539 52.3916 54.314 52.7634 55.3097C53.0423 56.0565 53.879 57.3323 54.6227 58.1413C55.5524 59.137 56.0792 60.0083 56.2341 60.9106C56.451 62.0308 56.637 62.2797 57.5666 62.5598L58.6512 62.9332L58.7441 65.4225C58.8371 67.8495 58.8061 67.974 57.8455 69.032C57.0088 70.0277 56.6989 70.1522 55.3974 70.1522C54.2509 70.1522 53.6931 69.9655 52.7944 69.2498C50.4703 67.4139 49.1998 65.1736 49.1998 62.9954C49.1998 61.8441 48.4871 61.004 46.9686 60.3505C46.2249 60.0394 45.1713 59.3548 44.6445 58.8259C43.7769 58.0479 43.6219 57.6746 43.6219 56.461C43.6219 54.7185 44.4586 53.785 46.6588 52.976C48.673 52.2603 49.4167 52.2914 50.9351 53.1938Z" fill="#FFFEFE"/>
<path d="M26.8883 60.1639C26.8883 60.6928 27.0123 61.1596 27.1672 61.2529C27.2912 61.3463 27.5081 61.8752 27.632 62.4042C27.725 62.9332 28.4377 64.3334 29.2124 65.4847C30.6379 67.6317 30.8548 68.6275 30.266 69.9655C29.9561 70.65 30.0181 70.8678 30.7618 71.7702C31.2266 72.3303 31.8154 73.2015 32.0633 73.7305C32.4662 74.6018 32.4972 74.5395 32.3732 72.4859C32.3112 71.2723 32.0323 69.8099 31.7534 69.2187C31.3506 68.4096 29.6772 61.4085 29.6772 60.6306C29.6772 60.5372 27.1982 59.2615 26.9813 59.2615C26.9193 59.2615 26.8883 59.666 26.8883 60.1639Z" fill="#FFFEFE"/>
<path d="M62.0599 33.4039C64.353 33.7462 67.3279 34.8352 68.6294 35.831C70.2408 37.0134 71.2014 38.1024 71.2324 38.6937C71.2324 38.9737 71.3253 39.0359 71.3873 38.8181C71.6042 38.2891 70.7366 36.7333 69.714 35.8621C67.8547 34.2752 65.3446 33.3417 62.8656 33.2483C60.8204 33.1861 60.7274 33.1861 62.0599 33.4039Z" fill="#FFFEFE"/>
<path d="M67.3898 42.6454C67.1109 42.9566 67.5138 43.7034 67.9786 43.7034C68.2265 43.7034 68.4124 43.4233 68.4124 43.081C68.4124 42.4898 67.8237 42.2409 67.3898 42.6454Z" fill="#FFFEFE"/>
<path d="M65.6545 43.9834C65.1587 44.2946 65.4686 44.948 66.1193 44.948C66.3672 44.948 66.5532 44.668 66.5532 44.3257C66.5532 43.6411 66.3362 43.5478 65.6545 43.9834Z" fill="#FFFEFE"/>
<path d="M69.8689 44.5124C69.4351 44.9791 69.683 45.5703 70.3027 45.5703C70.7366 45.5703 70.8915 45.4148 70.8295 45.0414C70.7366 44.4813 70.2098 44.2012 69.8689 44.5124Z" fill="#FFFEFE"/>
<path d="M63.8262 45.7881C63.9502 46.4416 64.8488 46.5661 64.8488 45.8815C64.8488 45.6326 64.6009 45.3836 64.291 45.3214C63.8572 45.2281 63.7332 45.3525 63.8262 45.7881Z" fill="#FFFEFE"/>
<path d="M68.3195 46.0993C67.8857 46.5038 68.1336 47.1262 68.7224 47.1262C69.4041 47.1262 69.4351 47.095 69.1562 46.3794C68.9393 45.8504 68.6604 45.757 68.3195 46.0993Z" fill="#FFFEFE"/>
<path d="M66.3672 47.7796C66.2743 47.9663 66.3053 48.2464 66.4912 48.4331C66.894 48.8376 67.4828 48.4953 67.4828 47.873C67.4828 47.3751 66.6771 47.2818 66.3672 47.7796Z" fill="#FFFEFE"/>
<path d="M46.1939 36.4222C45.977 36.5155 45.7911 36.7333 45.7911 36.8889C45.7911 37.0756 46.008 37.0756 46.3489 36.8889C46.6897 36.7022 47.5884 36.7956 49.0448 37.169C51.8028 37.8846 52.2366 38.0402 53.5381 39.0048L54.6227 39.8138L54.1269 39.0671C53.3522 37.8535 50.6252 36.5778 48.4561 36.3911C47.4334 36.3288 46.3799 36.3288 46.1939 36.4222Z" fill="#FFFEFE"/>
<path d="M52.4845 56.9277C52.5775 57.4256 52.8874 58.0168 53.1663 58.2346C53.91 58.7636 54.0649 58.9503 54.9326 60.1638C55.3664 60.7861 55.7073 61.0351 55.7073 60.755C55.7073 60.5061 55.4284 59.9771 55.0875 59.5726C54.7466 59.1681 54.4678 58.7325 54.4678 58.5769C54.4678 58.4213 54.1269 58.1724 53.755 57.9857C53.3522 57.799 52.8564 57.27 52.6704 56.8344L52.2986 55.9943L52.4845 56.9277Z" fill="#FFFEFE"/>
<path d="M47.8364 60.0705C49.3548 61.0973 49.5097 61.3462 49.5097 62.6531C49.5097 64.0222 50.5013 66.0759 51.6169 67.0716C52.1747 67.5695 52.2677 67.6317 51.9268 67.1961C51.1831 66.2937 50.4084 64.3645 50.0055 62.3731C49.6956 60.9728 49.4477 60.5372 48.6111 59.9771C48.0223 59.5726 47.3405 59.2614 47.0926 59.2614C46.8447 59.2614 47.1856 59.6348 47.8364 60.0705Z" fill="#FFFEFE"/>
<path d="M65.7165 10.7824C64.8798 11.7159 64.5699 12.7427 64.9728 13.4273C65.2517 13.9252 65.2826 13.9252 65.3136 13.3028C65.3136 12.5249 67.3589 10.3157 67.8857 10.5024C68.5984 10.7202 68.4434 11.6226 67.4828 12.7116C66.925 13.334 66.3053 13.8318 66.0574 13.8318C65.8094 13.8318 65.6235 13.9874 65.6235 14.1741C65.6235 14.8275 67.6068 14.1741 68.3195 13.2717C69.1562 12.2449 69.2181 11.3114 68.4744 10.6268C67.6687 9.88006 66.4602 9.9734 65.7165 10.7824Z" fill="#FFFEFE"/>
<path d="M17.096 12.9606C17.158 13.1784 17.065 13.6451 16.8791 13.9874C16.6002 14.5475 16.6002 14.5786 17.065 14.1741C17.4989 13.8318 17.6848 13.8318 18.1186 14.1741C18.5835 14.5786 18.5835 14.5475 18.2426 13.8941C18.0257 13.4584 17.9947 13.2095 18.2116 13.2095C18.3665 13.2095 18.5215 13.0539 18.5215 12.8983C18.5215 12.6805 18.3356 12.6805 17.9327 12.8983C17.5299 13.1162 17.282 13.1162 17.189 12.8983C17.096 12.7116 17.065 12.7428 17.096 12.9606Z" fill="#FFFEFE"/>
<path d="M68.9083 14.3919C68.8153 14.5475 69.621 15.5121 70.6746 16.5389C73.2776 19.0904 74.3312 20.3662 76.3765 23.4467C79.8471 28.6431 81.6754 33.435 83.0079 40.9029C83.1319 41.6808 83.2558 44.0456 83.2558 46.1927C83.2868 49.3043 83.1009 50.9534 82.3882 54.4696C81.8923 56.8966 81.3346 59.137 81.1486 59.4482C80.9937 59.7904 80.6218 60.6306 80.3739 61.3774C80.095 62.093 79.2893 63.8978 78.5766 65.3291C77.3991 67.7562 77.2131 68.6274 77.9878 68.1607C78.8245 67.6317 81.4585 61.7819 82.6051 57.8612C83.6587 54.1895 84.0305 51.2024 84.0305 46.1927C83.9995 41.4008 83.2868 35.4887 82.667 34.8664C82.4811 34.6797 82.3572 34.2752 82.3572 33.964C82.3572 32.9372 80.157 27.803 78.5146 25.0336C76.4694 21.5175 74.3622 18.7793 71.7592 16.2278C69.652 14.1741 69.2182 13.894 68.9083 14.3919Z" fill="#FFFEFE"/>
<path d="M11.8281 17.0679C8.07849 21.0508 6.71501 23.0111 4.48387 27.5852C2.5626 31.5369 1.94284 33.3106 0.982205 37.4801C0.269477 40.4984 0.145525 41.8364 0.145525 46.0371C0.114536 50.3933 0.207501 51.5135 0.982205 55.0608C1.88086 59.1059 2.81051 61.6263 3.33731 61.284C3.6162 61.1284 3.39928 60.0705 2.40766 56.9277C0.610347 51.2024 0.765288 40.5606 2.71754 34.4307C4.29794 29.5455 5.69241 26.6828 8.35739 22.6999C9.84482 20.5218 10.2477 20.055 13.0366 17.1924C14.1832 16.0099 15.1128 14.9209 15.1128 14.7653C15.1128 13.9563 14.0282 14.7031 11.8281 17.0679Z" fill="#FFFEFE"/>
<path d="M74.9819 15.3876C74.1143 16.1966 74.0213 16.3833 74.3622 16.9434C74.889 17.7525 75.7566 18.0325 76.3144 17.5658C76.9032 17.0679 76.9032 16.5078 76.3144 16.0099C75.9736 15.7299 75.9116 15.5121 76.1285 15.2943C76.3454 15.0765 76.6553 15.1387 77.0891 15.5432C77.43 15.8544 77.7089 15.9788 77.7089 15.7921C77.7089 15.4187 76.6863 14.4541 76.2834 14.4541C76.1285 14.4541 75.5397 14.8898 74.9819 15.3876ZM76.0975 16.7256C76.1595 17.0368 76.0045 17.2546 75.7566 17.2546C75.1989 17.2546 74.5481 16.5078 74.827 16.1966C75.1989 15.8232 76.0045 16.1344 76.0975 16.7256Z" fill="#FFFEFE"/>
<path d="M77.1821 17.5969C76.0046 18.3437 75.9736 18.5304 76.6553 19.5883C77.2751 20.5218 77.8639 20.6151 77.3991 19.7128C77.1821 19.3705 77.1202 18.8415 77.2441 18.5926C77.3991 18.157 77.461 18.157 77.8329 18.6859C78.0808 18.9971 78.3907 19.1838 78.5146 19.0593C78.6386 18.9349 78.5456 18.6237 78.3287 18.3437C77.7709 17.6591 78.2047 17.3791 78.8865 17.9703C79.1964 18.2814 79.5682 18.4059 79.6612 18.3125C79.8471 18.0947 78.7315 16.9434 78.3597 16.9434C78.2667 16.9434 77.7089 17.2546 77.1821 17.5969Z" fill="#FFFEFE"/>
<path d="M78.6385 20.2107C78.0188 20.8641 77.9568 21.0819 78.2667 21.7665C78.4526 22.2021 78.7625 22.5444 78.9484 22.5444C79.1653 22.5444 79.1963 22.3577 78.9484 21.9532C78.4526 21.0197 78.5766 20.7707 79.5682 20.3974C80.3429 20.1484 80.5598 20.1795 80.7148 20.5218C80.8077 20.7707 81.0866 20.9886 81.3655 20.9886C81.7374 20.9886 81.6754 20.8019 81.1176 20.2107C80.188 19.2149 79.5682 19.2149 78.6385 20.2107Z" fill="#FFFEFE"/>
<path d="M80.4979 22.5755C79.1654 23.3845 79.1034 23.4467 79.3513 23.6645C79.4443 23.789 80.0641 23.5401 80.6838 23.1356C81.7994 22.451 81.8304 22.451 82.2642 23.0422C82.6361 23.5712 82.6361 23.6645 82.1403 24.0068C80.6528 25.0025 80.4979 25.1892 80.6838 25.8738C80.9007 26.6517 81.5205 26.7762 82.853 26.2783C83.5037 26.0294 83.7516 26.0294 83.9376 26.3405C84.1235 26.6206 83.8446 26.9318 83.1319 27.274C81.7374 28.0208 81.3656 28.612 82.5121 28.332C83.5347 28.083 84.8052 27.1807 84.8052 26.7451C84.8052 26.5584 84.6193 26.185 84.4024 25.8738C84.0305 25.3759 83.8136 25.3448 82.6981 25.656C80.8698 26.1538 80.5289 25.7182 82.0163 24.8158C83.4418 23.9757 83.5347 23.6334 82.6981 22.6066C81.9853 21.7665 81.8614 21.7665 80.4979 22.5755Z" fill="#FFFEFE"/>
<path d="M82.3571 28.9854C82.3571 29.141 82.6359 29.4833 82.9458 29.7633C83.3487 30.1056 83.5036 30.5101 83.3797 30.9768C83.1937 31.6303 83.2867 31.5992 84.4952 30.6346C85.208 30.0434 85.7348 29.4521 85.6728 29.2654C85.5488 28.8609 82.3571 28.612 82.3571 28.9854ZM84.6812 29.7011C84.5882 29.8567 84.2783 30.0122 84.0304 30.0122C83.7825 30.0122 83.6586 29.8567 83.7515 29.7011C83.8445 29.5144 84.1544 29.3899 84.4023 29.3899C84.6502 29.3899 84.7741 29.5144 84.6812 29.7011Z" fill="#FFFEFE"/>
<path d="M86.0137 31.1324C85.9827 31.4124 85.4559 31.817 84.8671 32.0348C83.5037 32.4704 83.1318 33.2483 84.4333 32.9371C84.8981 32.8127 85.4869 32.5949 85.7038 32.4082C85.9827 32.1903 86.2306 32.2526 86.5715 32.6882C87.0053 33.2483 87.0053 33.2172 86.8194 32.1903C86.6025 30.9146 86.1686 30.3545 86.0137 31.1324Z" fill="#FFFEFE"/>
<path d="M85.239 34.1196C84.0615 34.5241 83.8446 35.0842 84.9911 34.8041C85.6729 34.6485 85.7658 34.7108 85.7658 35.4265C85.7658 35.9243 85.5799 36.2355 85.301 36.2355C85.0531 36.2355 84.8362 36.3911 84.8362 36.5778C84.8362 36.92 86.1997 36.7333 87.4702 36.2044C87.997 35.9865 87.997 35.9554 87.2533 35.9554C86.5405 35.9243 86.3856 35.7687 86.3856 35.1464C86.3856 34.6485 86.5715 34.3685 86.8504 34.3685C87.0983 34.3685 87.3152 34.2129 87.3152 34.0573C87.3152 33.6839 86.5715 33.7151 85.239 34.1196Z" fill="#FFFEFE"/>
<path d="M6.90095 35.9243C6.77699 36.111 6.96292 36.3288 7.27281 36.4533C7.58269 36.5777 7.89257 36.7644 7.98553 36.8578C8.0785 36.9822 8.76024 37.4179 9.50395 37.8224C13.5324 40.0316 14.493 40.3428 14.493 39.5027C14.493 39.1915 13.9353 38.4136 13.2225 37.7601C12.1689 36.7955 11.6421 36.5466 10.1857 36.3599C9.22506 36.2355 8.14047 36.0488 7.76862 35.8932C7.36577 35.7376 6.99391 35.7687 6.90095 35.9243Z" fill="#FFFEFE"/>
<path d="M85.332 38.1336C85.7968 38.6314 85.8278 38.8804 85.5179 39.3471C84.9291 40.3117 85.0531 40.3428 86.6954 39.5027C87.5631 39.0671 88.2448 38.5381 88.2448 38.2892C88.2448 37.9158 86.7574 37.4801 85.332 37.4801C84.7432 37.4801 84.7432 37.4801 85.332 38.1336ZM87.1293 38.5692C87.0053 38.8181 86.8194 39.0359 86.6645 39.0359C86.5095 39.0359 86.3856 38.8181 86.3856 38.5692C86.3856 38.3203 86.6025 38.1025 86.8504 38.1025C87.1293 38.1025 87.2222 38.2892 87.1293 38.5692Z" fill="#FFFEFE"/>
<path d="M85.4559 40.934C85.4559 41.0896 85.7348 41.2141 86.0757 41.2141C86.4785 41.2141 86.6955 41.4319 86.6955 41.8364C86.6955 42.272 86.4785 42.4587 86.0137 42.4587C85.6419 42.4587 85.4559 42.5521 85.5799 42.6765C85.8588 42.9566 88.3378 42.801 88.6787 42.4587C88.8336 42.3031 88.8646 41.8364 88.7407 41.4008C88.5857 40.7162 88.3998 40.6229 87.0053 40.654C86.1377 40.654 85.4559 40.7784 85.4559 40.934ZM88.2449 41.5252C88.2449 41.8675 88.0279 42.1476 87.78 42.1476C87.5321 42.1476 87.3152 41.8675 87.3152 41.5252C87.3152 41.183 87.5321 40.9029 87.78 40.9029C88.0279 40.9029 88.2449 41.183 88.2449 41.5252Z" fill="#FFFEFE"/>
<path d="M84.9911 44.948C84.8982 45.1036 84.9602 45.2592 85.1151 45.2592C85.301 45.2592 85.456 45.7571 85.456 46.3483C85.456 47.0017 85.301 47.4373 85.0841 47.4373C84.8362 47.4373 84.8052 47.5307 85.0221 47.7485C85.1771 47.9041 86.0757 47.9352 87.0674 47.8418C88.5238 47.6863 88.8337 47.5618 88.9266 47.0017C89.1436 45.9438 88.8957 45.5704 87.966 45.5704C87.5012 45.5704 86.8504 45.3525 86.5096 45.1036C85.8278 44.5746 85.27 44.5124 84.9911 44.948ZM88.1829 46.2549C88.8027 46.8772 88.6168 47.1262 87.5012 47.1262C86.5406 47.1262 85.8588 46.535 86.2926 46.0682C86.6335 45.7571 87.7801 45.8504 88.1829 46.2549Z" fill="#FFFEFE"/>
<path d="M71.4803 48.1219C70.7056 48.8687 69.8999 49.7088 69.683 49.9888C68.8773 51.0468 69.714 50.5489 71.3563 48.962C72.8748 47.5307 73.1536 47.3751 74.0523 47.5307C75.0749 47.7485 75.0749 47.7485 74.3002 47.2817C73.1536 46.6283 72.9677 46.6905 71.4803 48.1219Z" fill="#FFFEFE"/>
<path d="M85.8588 48.8998C85.363 49.0865 85.332 50.6112 85.8278 51.109C86.0447 51.3268 86.6645 51.4824 87.2223 51.4824C88.4928 51.4824 89.1435 50.4245 88.5857 49.3354C88.2449 48.7131 86.8814 48.4641 85.8588 48.8998ZM87.6561 49.3043C88.8336 49.9577 88.1829 51.0779 86.8194 50.7356C86.0137 50.5178 85.8588 49.9577 86.4476 49.3665C86.9124 48.8998 86.9124 48.8998 87.6561 49.3043Z" fill="#FFFEFE"/>
<path d="M85.27 52.8827C85.177 53.2872 85.146 53.8162 85.239 54.034C85.332 54.2518 85.4249 54.1273 85.4249 53.785C85.4559 52.976 86.1376 52.6649 87.1912 52.9138C87.749 53.0694 87.935 53.3183 87.935 53.9406C87.966 54.6563 87.9969 54.6874 88.2758 54.1895C88.8026 53.2561 87.842 52.1048 86.5405 52.1048C85.6728 52.1048 85.4249 52.2292 85.27 52.8827Z" fill="#FFFEFE"/>
<path d="M87.4391 55.7453C87.1603 56.181 86.9743 56.2121 86.0757 55.9009C85.5179 55.6831 84.9601 55.5898 84.8981 55.6831C84.6192 55.932 85.0531 56.2121 86.1376 56.4299C86.8504 56.5855 87.1293 56.8033 87.0673 57.1767C86.9743 57.7679 87.5941 57.8924 87.749 57.3011C88.3378 55.4342 88.1829 54.594 87.4391 55.7453Z" fill="#FFFEFE"/>
<path d="M84.4334 57.3011C84.3094 57.3945 84.3714 57.6745 84.5263 57.8612C84.9292 58.3591 84.5883 59.2615 84.0305 59.2615C83.7826 59.2615 83.5967 59.3859 83.5967 59.5726C83.5967 59.7282 83.9066 59.8215 84.3094 59.7593C84.6813 59.666 85.456 59.6037 86.0138 59.6037C86.8194 59.5726 87.0364 59.4482 86.9434 59.0436C86.8814 58.7325 86.5406 58.3591 86.1687 58.1724C85.8278 57.9857 85.332 57.6745 85.0841 57.4567C84.8362 57.27 84.5263 57.1767 84.4334 57.3011ZM86.0757 58.7947C86.3856 59.1992 86.3546 59.2615 85.7968 59.2615C85.425 59.2615 85.1461 59.0748 85.1461 58.7947C85.1461 58.5458 85.27 58.328 85.425 58.328C85.5799 58.328 85.8588 58.5458 86.0757 58.7947Z" fill="#FFFEFE"/>
<path d="M71.8212 58.2658C72.0691 58.3902 72.6269 58.7325 73.0607 59.0126C73.4945 59.2926 74.3622 59.7593 75.013 60.0394C76.0356 60.4439 76.1595 60.475 76.1595 60.0394C76.1595 59.7593 75.8806 59.5727 75.4778 59.5727C75.0749 59.5727 74.2073 59.2304 73.5255 58.7947C72.8438 58.3902 72.0691 58.048 71.8212 58.048C71.4183 58.048 71.4183 58.0791 71.8212 58.2658Z" fill="#FFFEFE"/>
<path d="M83.0698 61.1284C82.7909 61.9063 82.7909 62.1553 83.1938 62.5598C83.4727 62.8087 83.8755 62.9643 84.0924 62.8709C84.3094 62.7776 84.5882 62.8398 84.6812 62.9954C84.9601 63.431 85.332 63.3688 85.8897 62.8087C86.7264 61.9997 86.4785 61.284 85.239 60.8484C84.5882 60.5995 83.9065 60.3505 83.7516 60.2883C83.5656 60.2261 83.2558 60.5995 83.0698 61.1284ZM84.4643 61.6574C84.3094 62.4353 83.5966 62.5287 83.5966 61.7819C83.5966 61.4085 83.7826 61.1284 84.0924 61.1284C84.3713 61.1284 84.5263 61.3462 84.4643 61.6574ZM85.7658 61.8752C85.7658 62.342 85.208 62.8398 84.9601 62.5909C84.7432 62.3731 85.177 61.4396 85.4869 61.4396C85.6418 61.4396 85.7658 61.6263 85.7658 61.8752Z" fill="#FFFEFE"/>
<path d="M3.18234 62.342C2.15973 62.9954 1.10613 63.8978 0.889211 64.3645C0.486365 65.0802 0.517353 65.3291 1.1681 66.7294C2.09775 68.7208 3.67815 70.4633 4.5768 70.4633C5.32052 70.4633 7.9855 68.9697 9.16305 67.8807C10.2786 66.8538 10.0307 65.6092 8.10945 62.7776C7.67562 62.1242 7.14882 61.5019 6.96289 61.3774C6.18819 60.8795 4.97965 61.1907 3.18234 62.342ZM6.86993 62.2798C7.86155 63.3066 9.22503 65.6403 9.22503 66.3249C9.22503 67.0405 7.70661 68.4096 5.84732 69.3743C5.01064 69.7788 4.66977 69.841 4.14297 69.5609C2.99641 68.9075 1.04415 65.5781 1.35403 64.7379C1.66392 63.96 4.94866 61.8441 6.00226 61.7819C6.18819 61.7508 6.56005 61.9997 6.86993 62.2798Z" fill="#FFFEFE"/>
<path d="M3.89509 64.2712C3.0894 64.7379 3.12039 66.9161 3.92608 67.3517C5.53746 68.2229 7.36576 67.2895 7.36576 65.6092C7.36576 64.2401 5.28956 63.431 3.89509 64.2712ZM6.37414 65.8892C6.31217 66.6671 6.12624 66.9161 5.56845 66.9783C4.05003 67.1961 3.39928 65.6092 4.63881 64.7379C5.63043 64.0223 6.4981 64.6135 6.37414 65.8892Z" fill="#FFFEFE"/>
<path d="M7.86163 66.5738C7.98558 66.8538 8.20249 67.0094 8.35744 66.9783C8.82226 66.8227 8.69831 66.2626 8.17151 66.1693C7.83064 66.107 7.73767 66.2315 7.86163 66.5738Z" fill="#FFFEFE"/>
<path d="M82.3571 63.4933C82.3571 63.7422 82.574 63.9289 82.8529 63.9289C83.1318 63.9289 83.2867 64.1467 83.2248 64.4579C83.1628 64.8002 82.8529 65.018 82.4501 65.018C81.6134 65.018 81.1176 65.4847 81.9233 65.547C82.2331 65.547 82.667 65.6092 82.8529 65.6092C83.0388 65.6403 83.4417 65.827 83.7206 66.0759C83.9995 66.3249 84.3094 66.4182 84.4333 66.2937C84.5573 66.2004 84.3713 65.9203 84.0614 65.6714C83.3797 65.1736 83.7206 64.4268 84.5573 64.6446C85.6109 64.9246 85.177 64.3957 83.7516 63.7111C82.636 63.1821 82.3571 63.1199 82.3571 63.4933Z" fill="#FFFEFE"/>
<path d="M72.4719 63.8355C72.441 64.3956 73.0607 65.9203 73.2467 65.7336C73.3396 65.6403 73.1847 65.0802 72.9368 64.5201C72.6889 63.9289 72.4719 63.6177 72.4719 63.8355Z" fill="#FFFEFE"/>
<path d="M81.1176 66.2626C81.5514 66.7916 81.3035 67.2895 80.3739 67.6629C79.7541 67.9118 79.7541 67.9118 80.5908 68.2541C81.4894 68.5963 83.5966 68.7208 83.5966 68.4096C83.5966 68.0051 81.5514 65.7959 81.1486 65.7959C80.8077 65.7959 80.8077 65.8892 81.1176 66.2626ZM82.512 67.6629C82.605 67.8184 82.481 67.974 82.2331 67.974C81.9542 67.974 81.7373 67.8184 81.7373 67.6629C81.7373 67.4762 81.8613 67.3517 82.0162 67.3517C82.2022 67.3517 82.4191 67.4762 82.512 67.6629Z" fill="#FFFEFE"/>
<path d="M73.9904 68.2229C73.9904 68.5341 74.3312 69.0008 74.7651 69.2187C75.1989 69.4365 75.5398 69.8099 75.5398 70.0588C75.5398 70.2766 75.7877 70.4633 76.0666 70.4633C76.3455 70.4633 76.9652 70.8367 77.43 71.2723C77.9568 71.7702 78.4836 72.0191 78.7625 71.9258C79.2893 71.7079 79.4443 70.7745 78.9794 70.7745C78.7625 70.7745 77.9568 70.2144 75.4778 68.3163C74.4862 67.5073 73.9904 67.4761 73.9904 68.2229Z" fill="#FFFEFE"/>
<path d="M61.5331 68.6585C61.75 68.8764 61.9049 69.2809 61.9049 69.592C61.9049 70.5566 64.7868 71.2101 65.9024 70.4944C66.1813 70.3077 65.7475 70.2144 64.7559 70.2144C62.9585 70.2144 62.5867 70.0588 62.2148 69.0319C62.0599 68.6274 61.75 68.2851 61.5331 68.2851C61.2542 68.2851 61.2542 68.3785 61.5331 68.6585Z" fill="#FFFEFE"/>
<path d="M9.99975 69.2809C9.37999 69.9032 7.24181 71.3968 6.52908 71.708C6.28118 71.8324 6.34315 72.0814 6.746 72.6414C7.17983 73.1704 7.42774 73.2949 7.58268 73.0771C8.14046 72.2369 11.2703 70.1522 11.7971 70.2766C12.4788 70.4322 12.4788 70.3388 11.5802 69.4054C10.7125 68.4408 10.7745 68.4719 9.99975 69.2809Z" fill="#FFFEFE"/>
<path d="M12.3239 71.2101C12.3239 71.4901 12.4788 71.7079 12.6337 71.7079C12.8197 71.7079 12.9436 71.5835 12.9436 71.4279C12.9436 71.2412 12.8197 71.0234 12.6337 70.93C12.4788 70.8367 12.3239 70.9612 12.3239 71.2101Z" fill="#FFFEFE"/>
<path d="M74.6101 71.7702C74.6101 72.6103 74.796 73.0148 75.3848 73.3882C76.4074 74.0728 77.616 74.0105 78.0188 73.2948C78.4526 72.4858 78.4217 72.1124 77.9568 72.5792C77.3061 73.2326 76.5314 72.9837 75.5707 71.8013L74.6101 70.6189V71.7702Z" fill="#FFFEFE"/>
<path d="M12.6338 72.5792C12.1999 73.0459 11.2393 73.9483 10.4646 74.6018C9.28705 75.6286 9.16309 75.8153 9.56594 76.2198C9.9378 76.6243 10.2787 76.4065 12.3239 74.4773C14.1212 72.7659 14.524 72.2369 14.1522 71.988C13.5634 71.6146 13.5324 71.6457 12.6338 72.5792Z" fill="#FFFEFE"/>
<path d="M9.99973 72.3303C10.0927 72.4859 10.2476 72.6414 10.3406 72.6414C10.4026 72.6414 10.4646 72.4859 10.4646 72.3303C10.4646 72.1436 10.3096 72.0191 10.1237 72.0191C9.96875 72.0191 9.90677 72.1436 9.99973 72.3303Z" fill="#FFFEFE"/>
<path d="M72.9367 73.4193C72.224 74.4773 72.286 74.7262 73.5875 75.9398C74.6101 76.9355 74.765 76.9666 75.1989 76.531C75.6637 76.0642 75.6327 76.002 75.1369 75.7219C74.4551 75.3174 73.3706 74.1661 73.3706 73.8239C73.3706 73.6683 73.5875 73.4816 73.8354 73.3882C74.4242 73.1393 74.4551 72.6414 73.8664 72.6414C73.6495 72.6414 73.2156 72.9837 72.9367 73.4193Z" fill="#FFFEFE"/>
<path d="M69.528 74.1661C69.404 74.3217 69.466 74.7885 69.6209 75.193C69.8998 75.8464 69.9308 75.8464 69.9308 74.8818C69.9618 73.8861 69.8379 73.6683 69.528 74.1661Z" fill="#FFFEFE"/>
<path d="M11.859 76.4687C11.4252 77.2778 11.3942 77.6512 11.6421 78.1179C11.952 78.7091 11.983 78.7091 12.1689 78.0868C12.2929 77.7445 12.9126 76.9977 13.5324 76.4687L14.648 75.4419H13.5324C12.6028 75.4419 12.3239 75.5975 11.859 76.4687Z" fill="#FFFEFE"/>
<path d="M67.3589 76.0642C66.8011 76.6243 66.8321 76.6554 67.8547 77.5889C68.4435 78.1179 69.3111 79.0825 69.8069 79.7671L70.6746 81.0428L71.3873 80.3271C71.9141 79.8293 71.9761 79.6115 71.6662 79.5492C71.1704 79.4248 70.1478 77.9623 70.3957 77.7134C70.4887 77.62 71.0465 77.8378 71.6352 78.2112C72.5029 78.7713 72.8438 78.8336 73.3706 78.5535C74.0833 78.1801 74.2073 77.62 73.5565 77.62C73.3396 77.62 72.9677 77.4333 72.7818 77.1844C72.5649 76.9355 71.8522 76.6865 71.2014 76.6243C70.1478 76.531 69.9619 76.5932 69.9619 77.1222C69.9619 77.6823 69.8999 77.6823 69.1872 76.9977C68.7534 76.5932 68.4125 76.0953 68.4125 75.8464C68.4125 75.2863 68.0716 75.3797 67.3589 76.0642Z" fill="#FFFEFE"/>
<path d="M14.679 77.34C14.3691 77.869 13.7804 78.429 13.3775 78.6157C12.3549 79.0825 12.4479 79.487 13.5324 79.487C14.71 79.487 15.7016 78.2735 15.5157 77.1533C15.4227 76.7177 15.3298 76.3754 15.2988 76.3754C15.2678 76.3754 14.9889 76.811 14.679 77.34Z" fill="#FFFEFE"/>
<path d="M16.0425 79.1136C15.8255 79.9226 15.6086 80.825 15.5157 81.105C15.3917 81.5718 15.5157 81.6029 16.1044 81.3851C16.6002 81.1984 16.8791 80.7939 17.0031 80.0782C17.0961 79.487 17.251 78.8647 17.344 78.678C17.4679 78.5224 17.313 78.2112 16.9721 78.0245C16.4763 77.6823 16.3833 77.8067 16.0425 79.1136Z" fill="#FFFEFE"/>
<path d="M17.8398 80.016C17.4989 80.1093 17.313 80.5761 17.22 81.4473C17.0341 83.0342 17.0961 83.1276 17.9328 82.5675C18.3666 82.2563 18.6455 81.7274 18.7075 80.9494C18.7694 80.3271 18.7075 79.8293 18.5835 79.8293C18.4596 79.8604 18.1497 79.9226 17.8398 80.016Z" fill="#FFFEFE"/>
<path d="M19.699 81.1051C19.0483 81.7585 19.3892 81.8518 20.2258 81.2606C20.5357 81.0117 20.6597 80.7628 20.5047 80.6694C20.3498 80.5761 19.9779 80.7628 19.699 81.1051Z" fill="#FFFEFE"/>
<path d="M20.9695 81.7896C20.1638 82.1941 19.5751 83.501 19.854 84.2478C20.0709 84.8079 21.5583 85.8658 21.8062 85.6169C21.8992 85.5235 21.6823 85.1812 21.3104 84.839C20.7526 84.31 20.6906 84.0922 21.0005 83.5632C21.1865 83.1898 21.4963 83.0031 21.6823 83.0965C21.8992 83.252 21.9302 83.1587 21.7752 82.9098C21.6203 82.6608 21.7133 82.3497 22.0541 82.1319C22.7978 81.5718 21.9302 81.2917 20.9695 81.7896Z" fill="#FFFEFE"/>
<path d="M22.6739 82.7542C22.395 83.3454 22.395 83.5321 22.7669 83.6566C23.4176 83.9366 23.4796 83.9055 23.4796 83.2832C23.4796 82.2563 23.0148 81.9763 22.6739 82.7542Z" fill="#FFFEFE"/>
<path d="M68.0096 82.5675C66.7391 83.3765 66.5842 83.6877 67.6997 83.0965C68.2265 82.8164 68.7843 82.4741 68.8773 82.2875C69.1252 81.8829 69.0632 81.9141 68.0096 82.5675Z" fill="#FFFEFE"/>
<path d="M61.5951 82.5986C61.5951 82.7542 61.75 82.9098 61.905 82.9098C62.0909 82.9098 62.2149 82.7542 62.2149 82.5986C62.2149 82.4119 62.0909 82.2875 61.905 82.2875C61.75 82.2875 61.5951 82.4119 61.5951 82.5986Z" fill="#FFFEFE"/>
<path d="M58.5892 83.8122C56.6989 84.7768 55.9552 85.3991 56.575 85.6169C56.7609 85.7103 57.0398 86.3015 57.1328 86.986C57.3187 88.1684 57.6596 88.4174 58.4033 87.9506C58.7132 87.7639 58.6512 87.4216 58.1864 86.5504C57.4117 85.119 57.4117 84.7768 58.1244 84.7768C58.4343 84.7768 58.8371 84.6212 59.054 84.4034C59.3329 84.1233 59.6118 84.2167 60.2626 84.8079C62.1219 86.4882 62.2148 86.5193 62.2148 85.4302C62.2148 84.8079 62.0599 84.4656 61.781 84.4656C61.5331 84.4656 61.0683 84.1544 60.7584 83.7499L60.2006 83.0343L58.5892 83.8122Z" fill="#FFFEFE"/>
<path d="M24.4092 83.7499C24.4092 84.0611 24.1303 84.7767 23.7585 85.3679C23.2627 86.2081 23.2007 86.4881 23.5415 86.6748C24.1923 87.1105 24.3162 87.0171 24.8121 85.7413C25.3389 84.4345 25.9896 83.8121 26.2065 84.4033C26.3305 84.839 27.1981 84.9012 27.1981 84.4967C27.1981 84.1544 25.4628 83.2209 24.8121 83.2209C24.5951 83.2209 24.4092 83.4699 24.4092 83.7499Z" fill="#FFFEFE"/>
<path d="M61.9359 83.7188C61.9359 84.0611 62.0289 84.1544 62.1219 83.9055C62.2148 83.6877 62.1839 83.4076 62.0909 83.3143C61.9979 83.1898 61.905 83.3765 61.9359 83.7188Z" fill="#FFFEFE"/>
<path d="M50.0675 84.1855C49.5717 84.4656 49.5717 84.5901 50.0365 86.1147C50.2844 86.986 50.5943 88.324 50.7182 89.0086C50.9042 90.2221 50.9351 90.2843 51.6789 90.0043C52.1747 89.8176 52.2986 89.6309 52.0817 89.5064C51.8648 89.3819 51.5549 88.2306 51.338 86.9549C50.8732 84.0922 50.7492 83.8121 50.0675 84.1855Z" fill="#FFFEFE"/>
<path d="M65.3136 84.4656C65.0347 84.6523 65.0037 84.7768 65.2207 84.7768C65.4066 84.7768 65.6855 84.6212 65.7784 84.4656C66.0264 84.0922 65.9024 84.0922 65.3136 84.4656Z" fill="#FFFEFE"/>
<path d="M27.5081 85.0879C27.2292 85.5857 27.2911 85.9591 27.756 86.737C28.0658 87.2971 28.2828 87.9817 28.2208 88.2617C28.0349 89.0085 28.8096 88.9774 29.2744 88.1995C29.7392 87.5149 29.4913 86.6748 28.6856 86.0836C28.0349 85.6169 27.9419 84.9012 28.5307 84.6834C28.7476 84.59 28.6856 84.4967 28.3757 84.4967C28.0658 84.4656 27.694 84.7456 27.5081 85.0879Z" fill="#FFFEFE"/>
<path d="M47.5574 84.6834C47.4644 84.8079 47.5264 85.6169 47.6814 86.4882C47.8053 87.3283 47.9293 88.6352 47.9293 89.382C47.9603 90.5955 48.0222 90.72 48.642 90.6266C49.2618 90.5333 49.3547 90.3777 49.2618 89.4442C48.9519 86.177 48.1152 83.781 47.5574 84.6834Z" fill="#FFFEFE"/>
<path d="M29.3674 85.0568C29.3674 85.2435 29.4913 85.4613 29.6773 85.5547C29.8632 85.648 29.8942 85.5236 29.8012 85.2746C29.5843 84.7145 29.3674 84.6212 29.3674 85.0568Z" fill="#FFFEFE"/>
<path d="M38.075 85.9903C37.3313 86.6748 37.1144 87.1727 37.1144 88.044C37.1144 89.6309 38.4779 91 40.0583 91C41.7626 91 42.3824 90.5333 42.3824 89.2886C42.3824 88.324 42.2894 88.1995 41.5767 88.1995C40.9879 88.1995 40.802 88.324 40.9569 88.6663C41.0499 88.9152 40.9879 89.4753 40.833 89.9109C40.4611 90.8755 39.4385 90.9378 38.9427 90.0354C38.4469 89.1019 38.7568 86.457 39.4385 85.7102C40.3681 84.6834 39.2216 84.9323 38.075 85.9903Z" fill="#FFFEFE"/>
<path d="M41.1429 85.5235C41.1429 85.5858 41.3598 85.7102 41.6077 85.8347C41.8556 85.9281 42.0725 85.8658 42.0725 85.7102C42.0725 85.5235 41.8556 85.3991 41.6077 85.3991C41.3598 85.3991 41.1429 85.4613 41.1429 85.5235Z" fill="#FFFEFE"/>
<path d="M54.2509 85.7414C54.5298 85.9281 54.7157 86.177 54.6228 86.3637C54.4988 86.5193 54.7157 86.6437 55.0566 86.6437C55.8623 86.6437 55.8933 86.1459 55.1186 85.7103C54.3129 85.3057 53.5072 85.3057 54.2509 85.7414Z" fill="#FFFEFE"/>
<path d="M52.7944 86.2081C52.0817 88.0751 53.3522 89.8487 54.9946 89.2575C55.4594 89.1019 55.8622 88.7907 55.9552 88.5729C56.0481 88.2307 55.9552 88.2307 55.4594 88.5418C54.5917 89.1019 53.941 88.5107 53.693 86.9238C53.4761 85.648 53.1043 85.368 52.7944 86.2081Z" fill="#FFFEFE"/>
<path d="M61.9049 87.2349C61.9049 87.5772 61.781 87.9506 61.595 88.044C61.1302 88.324 61.2232 88.8219 61.75 88.8219C62.0599 88.8219 62.2148 88.4796 62.2148 87.7328C62.2148 87.1416 62.1528 86.6437 62.0599 86.6437C61.9669 86.6437 61.9049 86.9238 61.9049 87.2349Z" fill="#FFFEFE"/>
<path d="M43.8698 87.2038C43.281 87.3283 43.1261 87.7328 43.5909 88.0128C43.7459 88.1062 44.0248 87.9817 44.2417 87.7328C44.7065 87.1727 44.6135 87.0171 43.8698 87.2038Z" fill="#FFFEFE"/>
<path d="M45.2333 88.3862C45.4192 90.0354 45.2953 90.6888 44.7995 90.6888C44.6135 90.6888 44.5516 90.2843 44.6135 89.7553C44.7375 89.0085 44.6445 88.8218 44.1797 88.8218C43.498 88.8218 42.9402 90.0665 43.374 90.5955C43.529 90.8133 44.3346 90.9377 45.2023 90.9377C46.4108 90.9066 46.7207 90.7822 46.5658 90.4399C46.4728 90.2221 46.4108 89.4753 46.4108 88.8218C46.4108 87.8884 46.2559 87.515 45.7291 87.2349C45.1093 86.8926 45.0784 86.9238 45.2333 88.3862Z" fill="#FFFEFE"/>
<path d="M26.5784 87.5461C26.5784 87.7017 26.7334 87.9506 26.8883 88.0439C27.0742 88.1373 27.1982 88.1062 27.1982 87.9195C27.1982 87.7639 27.0742 87.515 26.8883 87.4216C26.7334 87.3283 26.5784 87.3594 26.5784 87.5461Z" fill="#FFFEFE"/>
<path d="M34.2635 90.2843C34.4805 90.3777 34.7593 90.3465 34.8523 90.2532C34.9763 90.1598 34.7903 90.0665 34.4495 90.0976C34.1086 90.0976 34.0156 90.191 34.2635 90.2843Z" fill="#FFFEFE"/>
</svg>
