<!DOCTYPE svg PUBLIC "-//W3C//DTD SVG 1.1//EN" "http://www.w3.org/Graphics/SVG/1.1/DTD/svg11.dtd">
<!-- Uploaded to: SVG Repo, www.svgrepo.com, Transformed by: SVG Repo Mixer Tools -->
<svg fill="#2dad73" height="64px" width="64px" version="1.1" id="Layer_1" xmlns="http://www.w3.org/2000/svg" xmlns:xlink="http://www.w3.org/1999/xlink" viewBox="0 0 512.00 512.00" xml:space="preserve" stroke="#2dad73" stroke-width="7.168000000000001">
<g id="SVGRepo_bgCarrier" stroke-width="0"/>
<g id="SVGRepo_tracerCarrier" stroke-linecap="round" stroke-linejoin="round"/>
<g id="SVGRepo_iconCarrier"> <g> <g> <path d="M505.102,105.921l-7.947-3.706l4.152-40.075c0.358-3.464-1.518-6.775-4.673-8.246l-57.079-26.617 c-3.158-1.473-6.899-0.782-9.323,1.721l-8.019,8.28c-3.14,3.242-3.057,8.414,0.185,11.553c3.243,3.14,8.415,3.056,11.553-0.185 l3.972-4.1l46.532,21.699l-2.969,28.664l-87.233-40.677c-3.914-1.825-8.569-0.291-10.631,3.501 c-32.673,60.081-33.052,60.893-33.196,61.201c-8.301,17.801-9.173,37.768-2.455,56.225c5.776,15.872,16.581,28.979,30.813,37.621 L358.628,256H288.68c-4.513,0-8.17,3.658-8.17,8.17c0,91.76-22.685,150.227-29.709,166.128h-30.134 c-12.121-9.688-75.249-64.025-93.809-157.957h21.256c0.021,0,0.04,0.004,0.06,0.004c0.026,0,0.053-0.004,0.08-0.004h107.747 c4.513,0,8.17-3.658,8.17-8.17l0.001-70.366c36.713-4.079,65.361-35.284,65.361-73.067c0-0.338,0-1.236-4.222-69.497 c-0.266-4.308-3.838-7.666-8.154-7.666h-8.768L295.212,5.499C294.072,2.207,290.974,0,287.49,0h-62.979 c-3.483,0-6.582,2.207-7.721,5.499l-3.769,10.894c-1.475,4.264,0.785,8.918,5.05,10.393c4.266,1.473,8.916-0.785,10.393-5.05 l1.866-5.395h51.343l9.423,27.234h-96.251c-4.316,0-7.888,3.357-8.155,7.666c-4.221,68.26-4.221,69.159-4.221,69.497 c0,9.723,1.914,19.001,5.356,27.503c0.122,0.399,0.279,0.78,0.458,1.149c10.175,23.955,32.706,41.432,59.548,44.414V256h-94.459 l-20.155-43.223c31.55-19.212,44.326-59.6,28.358-93.845c-0.143-0.306-0.522-1.119-33.196-61.199 c-2.063-3.792-6.719-5.326-10.63-3.501l-7.947,3.706l-28.03-28.942c-2.423-2.502-6.166-3.192-9.322-1.721L15.37,53.891 c-3.156,1.472-5.033,4.782-4.674,8.246l1.187,11.466c0.435,4.202,3.983,7.329,8.117,7.329c0.281,0,0.566-0.014,0.852-0.045 c4.488-0.465,7.75-4.481,7.285-8.969l-0.588-5.678l46.533-21.698l20.051,20.7l-1.607,0.749L6.898,105.92 c-3.912,1.825-5.73,6.377-4.152,10.395c25.022,63.648,25.401,64.461,25.544,64.769c4.018,8.616,9.618,16.205,16.349,22.504 c0.428,0.5,0.914,0.931,1.437,1.308c13.256,11.767,30.599,18.661,48.899,18.661c8.034,0,15.887-1.297,23.439-3.857L135.342,256 h-18.246c-2.393,0-4.666,1.049-6.218,2.87c-1.552,1.821-2.228,4.232-1.849,6.595c9.749,60.71,37.408,106.221,58.894,133.71 c12.22,15.635,23.773,27.297,32.137,34.959c-0.789,1.257-1.253,2.74-1.253,4.333c0,4.512,3.658,8.17,8.17,8.17h1.249 l-9.307,55.848c-0.394,2.368,0.272,4.791,1.825,6.624c1.552,1.833,3.832,2.889,6.233,2.889h98.043 c2.402,0,4.682-1.057,6.234-2.889c1.552-1.832,2.22-4.255,1.825-6.624l-9.309-55.848h1.25c4.513,0,8.17-3.658,8.17-8.17 c0-1.596-0.465-3.081-1.256-4.339c8.364-7.663,19.914-19.322,32.131-34.953c21.488-27.489,49.147-73,58.894-133.71 c0.38-2.363-0.296-4.774-1.849-6.595c-1.552-1.821-3.825-2.87-6.218-2.87h-18.237l16.928-36.302 c7.551,2.561,15.405,3.857,23.44,3.857c28.479,0,54.654-16.67,66.684-42.469c0.143-0.307,0.522-1.121,25.546-64.771 C510.832,112.297,509.014,107.745,505.102,105.921z M202.524,59.915h31.526c-13.979,9.066-25.602,21.464-33.744,36.06 C200.987,84.841,201.8,71.637,202.524,59.915z M203.84,144.153c0.687-46.565,38.757-84.238,85.482-84.238h13.217 c0.053,0,6.934,0,6.934,0c1.581,25.603,3.587,58.296,3.717,60.975c-0.082,31.466-25.706,57.038-57.19,57.038 C232.804,177.929,212.805,164.042,203.84,144.153z M33.995,151.1c-4.089-10.378-8.932-22.686-13.229-33.617l28.572-13.323 C40.5,118.284,35.205,134.432,33.995,151.1z M94.976,207.216c-13.96-0.001-27.206-5.154-37.437-13.983 c-19.025-42.482-0.444-92.685,41.884-112.428l18.27-8.519c12.254,22.537,27.89,51.32,29.138,53.692 c13.221,28.551,0.806,62.559-27.727,75.863C111.456,205.408,103.338,207.216,94.976,207.216z M264.17,495.66v-24.511 c0-4.512-3.657-8.17-8.17-8.17c-4.512,0-8.17,3.658-8.17,8.17v24.511h-31.206l8.17-49.021h31.172c0.051,0,31.242,0,31.242,0 l8.169,49.021H264.17z M385.131,272.34c-10.355,52.32-34.548,91.863-53.578,116.312c-17.927,23.031-34.593,37.151-40.227,41.645 h-22.731c9.204-22.658,27.061-76.796,28.197-157.957h66.995C363.857,272.34,385.131,272.34,385.131,272.34z M394.306,72.286 l28.573,13.323c-16.501,2.309-32.276,8.634-45.824,18.424C382.378,94.23,388.695,82.606,394.306,72.286z M468.834,174.317 c-9.387,19.99-29.708,32.899-51.811,32.899c-8.363,0-16.48-1.808-24.126-5.374c-13.846-6.456-24.348-17.917-29.573-32.272 c-2.409-6.617-3.546-13.483-3.459-20.319c20.282-41.958,70.738-60.04,113.106-40.284c0.008,0.003,18.264,8.516,18.264,8.516 C481.846,141.357,469.849,171.836,468.834,174.317z"/> </g> </g> </g>
</svg>