<!DOCTYPE svg PUBLIC "-//W3C//DTD SVG 1.1//EN" "http://www.w3.org/Graphics/SVG/1.1/DTD/svg11.dtd">
<!-- Uploaded to: SVG Repo, www.svgrepo.com, Transformed by: SVG Repo Mixer Tools -->
<svg width="64px" height="64px" viewBox="0 0 1024 1024" xmlns="http://www.w3.org/2000/svg" fill="#2dad73" stroke="#2dad73">
<g id="SVGRepo_bgCarrier" stroke-width="0"/>
<g id="SVGRepo_tracerCarrier" stroke-linecap="round" stroke-linejoin="round"/>
<g id="SVGRepo_iconCarrier">
<path fill="#2dad73" d="M160 224a32 32 0 0 0-32 32v512a32 32 0 0 0 32 32h704a32 32 0 0 0 32-32V256a32 32 0 0 0-32-32H160zm0-64h704a96 96 0 0 1 96 96v512a96 96 0 0 1-96 96H160a96 96 0 0 1-96-96V256a96 96 0 0 1 96-96z"/>
<path fill="#2dad73" d="M704 320a64 64 0 1 1 0 128 64 64 0 0 1 0-128zM288 448h256q32 0 32 32t-32 32H288q-32 0-32-32t32-32zm0 128h256q32 0 32 32t-32 32H288q-32 0-32-32t32-32z"/>
</g>
</svg>